999
dxfrw 0.6.3
  0
SECTION
  2
HEADER
  9
$ACADVER
  1
AC1021
  9
$DWGCODEPAGE
  3
ANSI_1252
  9
$INSBASE
 10
0
 20
0
 30
0
  9
$EXTMIN
 10
10000000000
 20
10000000000
 30
0
  9
$EXTMAX
 10
-10000000000
 20
-10000000000
 30
0
  9
$LIMMIN
 10
0
 20
0
  9
$LIMMAX
 10
420
 20
297
  9
$ORTHOMODE
 70
    0
  9
$REGENMODE
 70
    1
  9
$FILLMODE
 70
    1
  9
$QTEXTMODE
 70
    0
  9
$MIRRTEXT
 70
    0
  9
$LTSCALE
 40
1
  9
$ATTMODE
 70
    0
  9
$TEXTSIZE
 40
2.5
  9
$TRACEWID
 40
15.68
  9
$TEXTSTYLE
  7
STANDARD
  9
$CLAYER
  8
measurements
  9
$CELTYPE
  6
BYLAYER
  9
$CECOLOR
 62
  256
  9
$CELTSCALE
 40
1
  9
$DISPSILH
 70
    0
  9
$DIMSCALE
 40
20
  9
$DIMASZ
 40
2.5
  9
$DIMEXO
 40
0.625
  9
$DIMDLI
 40
3.75
  9
$DIMRND
 40
0
  9
$DIMDLE
 40
0
  9
$DIMEXE
 40
1.25
  9
$DIMTP
 40
0
  9
$DIMTM
 40
0
  9
$DIMTXT
 40
2.5
  9
$DIMCEN
 40
2.5
  9
$DIMTSZ
 40
0
  9
$DIMTOL
 70
    0
  9
$DIMLIM
 70
    0
  9
$DIMTIH
 70
    0
  9
$DIMTOH
 70
    0
  9
$DIMSE1
 70
    0
  9
$DIMSE2
 70
    0
  9
$DIMTAD
 70
    1
  9
$DIMZIN
 70
    8
  9
$DIMBLK
  1

  9
$DIMASO
 70
    1
  9
$DIMSHO
 70
    1
  9
$DIMPOST
  1

  9
$DIMAPOST
  1

  9
$DIMALT
 70
    0
  9
$DIMALTD
 70
    3
  9
$DIMALTF
 40
0.03937
  9
$DIMLFAC
 40
1
  9
$DIMTOFL
 70
    1
  9
$DIMTVP
 40
0
  9
$DIMTIX
 70
    0
  9
$DIMSOXD
 70
    0
  9
$DIMSAH
 70
    0
  9
$DIMBLK1
  1

  9
$DIMBLK2
  1

  9
$DIMSTYLE
  2
STANDARD
  9
$DIMCLRD
 70
    0
  9
$DIMCLRE
 70
    0
  9
$DIMCLRT
 70
    0
  9
$DIMTFAC
 40
1
  9
$DIMGAP
 40
0.625
  9
$DIMJUST
 70
    0
  9
$DIMSD1
 70
    0
  9
$DIMSD2
 70
    0
  9
$DIMTOLJ
 70
    0
  9
$DIMTZIN
 70
    8
  9
$DIMALTZ
 70
    0
  9
$DIMALTTZ
 70
    0
  9
$DIMUPT
 70
    0
  9
$DIMDEC
 70
    2
  9
$DIMTDEC
 70
    2
  9
$DIMALTU
 70
    2
  9
$DIMALTTD
 70
    3
  9
$DIMTXSTY
  7
standard
  9
$DIMAUNIT
 70
    0
  9
$DIMADEC
 70
    0
  9
$DIMALTRND
 40
0
  9
$DIMAZIN
 70
    0
  9
$DIMDSEP
 70
   44
  9
$DIMATFIT
 70
    3
  9
$DIMFRAC
 70
    0
  9
$DIMLDRBLK
  1
STANDARD
  9
$DIMLUNIT
 70
    2
  9
$DIMLWD
 70
   -2
  9
$DIMLWE
 70
   -2
  9
$DIMTMOVE
 70
    0
  9
$DIMFXL
 40
1
  9
$DIMFXLON
 70
    0
  9
$DIMJOGANG
 40
0.7854
  9
$DIMTFILL
 70
    0
  9
$DIMTFILLCLR
 70
    0
  9
$DIMARCSYM
 70
    0
  9
$DIMLTYPE
  6

  9
$DIMLTEX1
  6

  9
$DIMLTEX2
  6

  9
$LUNITS
 70
    2
  9
$LUPREC
 70
    4
  9
$SKETCHINC
 40
1
  9
$FILLETRAD
 40
0
  9
$AUNITS
 70
    0
  9
$AUPREC
 70
    2
  9
$MENU
  1
.
  9
$ELEVATION
 40
0
  9
$PELEVATION
 40
0
  9
$THICKNESS
 40
0
  9
$LIMCHECK
 70
    0
  9
$CHAMFERA
 40
0
  9
$CHAMFERB
 40
0
  9
$CHAMFERC
 40
0
  9
$CHAMFERD
 40
0
  9
$SKPOLY
 70
    0
  9
$USRTIMER
 70
    1
  9
$ANGBASE
 50
0
  9
$ANGDIR
 70
    0
  9
$PDMODE
 70
   34
  9
$PDSIZE
 40
0
  9
$PLINEWID
 40
0
  9
$SPLFRAME
 70
    0
  9
$SPLINETYPE
 70
    2
  9
$SPLINESEGS
 70
    8
  9
$HANDSEED
  5
20000
  9
$SURFTAB1
 70
    6
  9
$SURFTAB2
 70
    6
  9
$SURFTYPE
 70
    6
  9
$SURFU
 70
    6
  9
$SURFV
 70
    6
  9
$UCSBASE
  2

  9
$UCSNAME
  2

  9
$UCSORG
 10
0
 20
0
 30
0
  9
$UCSXDIR
 10
1
 20
0
 30
0
  9
$UCSYDIR
 10
0
 20
1
 30
0
  9
$UCSORTHOREF
  2

  9
$UCSORTHOVIEW
 70
    0
  9
$UCSORGTOP
 10
0
 20
0
 30
0
  9
$UCSORGBOTTOM
 10
0
 20
0
 30
0
  9
$UCSORGLEFT
 10
0
 20
0
 30
0
  9
$UCSORGRIGHT
 10
0
 20
0
 30
0
  9
$UCSORGFRONT
 10
0
 20
0
 30
0
  9
$UCSORGBACK
 10
0
 20
0
 30
0
  9
$PUCSBASE
  2

  9
$PUCSNAME
  2

  9
$PUCSORG
 10
0
 20
0
 30
0
  9
$PUCSXDIR
 10
1
 20
0
 30
0
  9
$PUCSYDIR
 10
0
 20
1
 30
0
  9
$PUCSORTHOREF
  2

  9
$PUCSORTHOVIEW
 70
    0
  9
$PUCSORGTOP
 10
0
 20
0
 30
0
  9
$PUCSORGBOTTOM
 10
0
 20
0
 30
0
  9
$PUCSORGLEFT
 10
0
 20
0
 30
0
  9
$PUCSORGRIGHT
 10
0
 20
0
 30
0
  9
$PUCSORGFRONT
 10
0
 20
0
 30
0
  9
$PUCSORGBACK
 10
0
 20
0
 30
0
  9
$USERI1
 70
    0
  9
$USERI2
 70
    0
  9
$USERI3
 70
    0
  9
$USERI4
 70
    0
  9
$USERI5
 70
    0
  9
$USERR1
 40
0
  9
$USERR2
 40
0
  9
$USERR3
 40
0
  9
$USERR4
 40
0
  9
$USERR5
 40
0
  9
$WORLDVIEW
 70
    1
  9
$SHADEDGE
 70
    3
  9
$SHADEDIF
 70
   70
  9
$TILEMODE
 70
    1
  9
$MAXACTVP
 70
   64
  9
$PINSBASE
 10
-1594.730223699736
 20
376.1237456284437
 30
0
  9
$PLIMCHECK
 70
    0
  9
$PEXTMIN
 10
0
 20
0
 30
0
  9
$PEXTMAX
 10
0
 20
0
 30
0
  9
$GRIDMODE
 70
    1
  9
$SNAPSTYLE
 70
    0
  9
$GRIDUNIT
 10
0
 20
0
  9
$PLIMMIN
 10
0
 20
0
  9
$PLIMMAX
 10
500
 20
594
  9
$UNITMODE
 70
    0
  9
$VISRETAIN
 70
    1
  9
$PLINEGEN
 70
    0
  9
$PSLTSCALE
 70
    1
  9
$TREEDEPTH
 70
 3020
  9
$CMLSTYLE
  2
Standard
  9
$CMLJUST
 70
    0
  9
$CMLSCALE
 40
20
  9
$PROXYGRAPHICS
 70
    1
  9
$MEASUREMENT
 70
    1
  9
$CELWEIGHT
370
   -1
  9
$ENDCAPS
280
    0
  9
$JOINSTYLE
280
    0
  9
$LWDISPLAY
290
    0
  9
$INSUNITS
 70
    4
  9
$HYPERLINKBASE
  1

  9
$STYLESHEET
  1

  9
$XEDIT
290
    1
  9
$CEPSNTYPE
380
    0
  9
$PSTYLEMODE
290
    1
  9
$EXTNAMES
290
    1
  9
$PSVPSCALE
 40
0.1
  9
$OLESTARTUP
290
    0
  9
$SORTENTS
280
  127
  9
$INDEXCTL
280
    0
  9
$HIDETEXT
280
    1
  9
$XCLIPFRAME
290
    0
  9
$HALOGAP
280
    0
  9
$OBSCOLOR
 70
  257
  9
$OBSLTYPE
280
    0
  9
$INTERSECTIONDISPLAY
280
    0
  9
$INTERSECTIONCOLOR
 70
  257
  9
$DIMASSOC
280
    1
  9
$PROJECTNAME
  1

  9
$CAMERADISPLAY
290
    0
  9
$LENSLENGTH
 40
50
  9
$CAMERAHEIGHT
 40
0
  9
$STEPSPERSEC
 40
2
  9
$STEPSIZE
 40
50
  9
$3DDWFPREC
 40
2
  9
$PSOLWIDTH
 40
5
  9
$PSOLHEIGHT
 40
80
  9
$LOFTANG1
 40
1.570796326794897
  9
$LOFTANG2
 40
1.570796326794897
  9
$LOFTMAG1
 40
0
  9
$LOFTMAG2
 40
0
  9
$LOFTPARAM
 70
    7
  9
$LOFTNORMALS
280
    1
  9
$LATITUDE
 40
1
  9
$LONGITUDE
 40
1
  9
$NORTHDIRECTION
 40
0
  9
$TIMEZONE
 70
-8000
  9
$LIGHTGLYPHDISPLAY
280
    1
  9
$TILEMODELIGHTSYNCH
280
    1
  9
$SOLIDHIST
280
    1
  9
$SHOWHIST
280
    1
  9
$DWFFRAME
280
    2
  9
$DGNFRAME
280
    0
  9
$REALWORLDSCALE
290
    1
  9
$INTERFERECOLOR
 62
    1
  9
$CSHADOW
280
    0
  9
$SHADOWPLANELOCATION
 40
0
  0
ENDSEC
  0
SECTION
  2
CLASSES
  0
ENDSEC
  0
SECTION
  2
TABLES
  0
TABLE
  2
VPORT
  5
8
330
0
100
AcDbSymbolTable
 70
    1
  0
VPORT
  5
31
330
2
100
AcDbSymbolTableRecord
100
AcDbViewportTableRecord
  2
*ACTIVE
 70
    0
 10
0
 20
0
 11
1
 21
1
 12
7888.144929302288
 22
-353.6478349763184
 13
0
 23
0
 14
10
 24
10
 15
10
 25
10
 16
0
 26
0
 36
1
 17
0
 27
0
 37
0
 40
4759.260694427065
 41
0.7304785894206549
 42
50
 43
0
 44
0
 50
0
 51
0
 71
    0
 72
  100
 73
    1
 74
    3
 75
    0
 76
    1
 77
    0
 78
    0
281
    0
 65
    1
110
0
120
0
130
0
111
1
121
0
131
0
112
0
122
1
132
0
 79
    0
146
0
348
10020
 60
    7
 61
    5
292
1
282
    1
141
0
142
0
 63
  250
421
3358443
  0
ENDTAB
  0
TABLE
  2
LTYPE
  5
5
330
0
100
AcDbSymbolTable
 70
    4
  0
LTYPE
  5
14
330
5
100
AcDbSymbolTableRecord
100
AcDbLinetypeTableRecord
  2
ByBlock
 70
    0
  3

 72
   65
 73
    0
 40
0
  0
LTYPE
  5
15
330
5
100
AcDbSymbolTableRecord
100
AcDbLinetypeTableRecord
  2
ByLayer
 70
    0
  3

 72
   65
 73
    0
 40
0
  0
LTYPE
  5
16
330
5
100
AcDbSymbolTableRecord
100
AcDbLinetypeTableRecord
  2
Continuous
 70
    0
  3
Solid line
 72
   65
 73
    0
 40
0
  0
LTYPE
  5
32
330
5
100
AcDbSymbolTableRecord
100
AcDbLinetypeTableRecord
  2
DOT
 70
    0
  3
Dot . . . . . . . . . . . . . . . . . . . . . .
 72
   65
 73
    2
 40
6.35
 49
0
 74
    0
 49
-6.35
 74
    0
  0
LTYPE
  5
33
330
5
100
AcDbSymbolTableRecord
100
AcDbLinetypeTableRecord
  2
DOTTINY
 70
    0
  3
Dot (.15x) .....................................
 72
   65
 73
    2
 40
0.9525
 49
0
 74
    0
 49
-0.9525
 74
    0
  0
LTYPE
  5
34
330
5
100
AcDbSymbolTableRecord
100
AcDbLinetypeTableRecord
  2
DOT2
 70
    0
  3
Dot (.5x) .....................................
 72
   65
 73
    2
 40
3.175
 49
0
 74
    0
 49
-3.175
 74
    0
  0
LTYPE
  5
35
330
5
100
AcDbSymbolTableRecord
100
AcDbLinetypeTableRecord
  2
DOTX2
 70
    0
  3
Dot (2x) .  .  .  .  .  .  .  .  .  .  .  .  .
 72
   65
 73
    2
 40
12.7
 49
0
 74
    0
 49
-12.7
 74
    0
  0
LTYPE
  5
36
330
5
100
AcDbSymbolTableRecord
100
AcDbLinetypeTableRecord
  2
DASHED
 70
    0
  3
Dashed _ _ _ _ _ _ _ _ _ _ _ _ _ _ _ _ _
 72
   65
 73
    2
 40
19.05
 49
12.7
 74
    0
 49
-6.35
 74
    0
  0
LTYPE
  5
37
330
5
100
AcDbSymbolTableRecord
100
AcDbLinetypeTableRecord
  2
DASHEDTINY
 70
    0
  3
Dashed (.15x) _ _ _ _ _ _ _ _ _ _ _ _ _ _ _ _ _
 72
   65
 73
    2
 40
2.8575
 49
1.905
 74
    0
 49
-0.9525
 74
    0
  0
LTYPE
  5
38
330
5
100
AcDbSymbolTableRecord
100
AcDbLinetypeTableRecord
  2
DASHED2
 70
    0
  3
Dashed (.5x) _ _ _ _ _ _ _ _ _ _ _ _ _ _ _ _ _
 72
   65
 73
    2
 40
9.524999999999999
 49
6.35
 74
    0
 49
-3.175
 74
    0
  0
LTYPE
  5
39
330
5
100
AcDbSymbolTableRecord
100
AcDbLinetypeTableRecord
  2
DASHEDX2
 70
    0
  3
Dashed (2x) ____  ____  ____  ____  ____  ___
 72
   65
 73
    2
 40
38.09999999999999
 49
25.4
 74
    0
 49
-12.7
 74
    0
  0
LTYPE
  5
3A
330
5
100
AcDbSymbolTableRecord
100
AcDbLinetypeTableRecord
  2
DASHDOT
 70
    0
  3
Dash dot __ . __ . __ . __ . __ . __ . __ . __
 72
   65
 73
    4
 40
25.4
 49
12.7
 74
    0
 49
-6.35
 74
    0
 49
0
 74
    0
 49
-6.35
 74
    0
  0
LTYPE
  5
3B
330
5
100
AcDbSymbolTableRecord
100
AcDbLinetypeTableRecord
  2
DASHDOTTINY
 70
    0
  3
Dash dot (.15x) _._._._._._._._._._._._._._._.
 72
   65
 73
    4
 40
3.81
 49
1.905
 74
    0
 49
-0.9525
 74
    0
 49
0
 74
    0
 49
-0.9525
 74
    0
  0
LTYPE
  5
3C
330
5
100
AcDbSymbolTableRecord
100
AcDbLinetypeTableRecord
  2
DASHDOT2
 70
    0
  3
Dash dot (.5x) _._._._._._._._._._._._._._._.
 72
   65
 73
    4
 40
12.7
 49
6.35
 74
    0
 49
-3.175
 74
    0
 49
0
 74
    0
 49
-3.175
 74
    0
  0
LTYPE
  5
3D
330
5
100
AcDbSymbolTableRecord
100
AcDbLinetypeTableRecord
  2
DASHDOTX2
 70
    0
  3
Dash dot (2x) ____  .  ____  .  ____  .  ___
 72
   65
 73
    4
 40
50.8
 49
25.4
 74
    0
 49
-12.7
 74
    0
 49
0
 74
    0
 49
-12.7
 74
    0
  0
LTYPE
  5
3E
330
5
100
AcDbSymbolTableRecord
100
AcDbLinetypeTableRecord
  2
DIVIDE
 70
    0
  3
Divide ____ . . ____ . . ____ . . ____ . . ____
 72
   65
 73
    6
 40
31.75
 49
12.7
 74
    0
 49
-6.35
 74
    0
 49
0
 74
    0
 49
-6.35
 74
    0
 49
0
 74
    0
 49
-6.35
 74
    0
  0
LTYPE
  5
3F
330
5
100
AcDbSymbolTableRecord
100
AcDbLinetypeTableRecord
  2
DIVIDETINY
 70
    0
  3
Divide (.15x) __..__..__..__..__..__..__..__.._
 72
   65
 73
    6
 40
4.7625
 49
1.905
 74
    0
 49
-0.9525
 74
    0
 49
0
 74
    0
 49
-0.9525
 74
    0
 49
0
 74
    0
 49
-0.9525
 74
    0
  0
LTYPE
  5
40
330
5
100
AcDbSymbolTableRecord
100
AcDbLinetypeTableRecord
  2
DIVIDE2
 70
    0
  3
Divide (.5x) __..__..__..__..__..__..__..__.._
 72
   65
 73
    6
 40
15.875
 49
6.35
 74
    0
 49
-3.175
 74
    0
 49
0
 74
    0
 49
-3.175
 74
    0
 49
0
 74
    0
 49
-3.175
 74
    0
  0
LTYPE
  5
41
330
5
100
AcDbSymbolTableRecord
100
AcDbLinetypeTableRecord
  2
DIVIDEX2
 70
    0
  3
Divide (2x) ________  .  .  ________  .  .  _
 72
   65
 73
    6
 40
63.5
 49
25.4
 74
    0
 49
-12.7
 74
    0
 49
0
 74
    0
 49
-12.7
 74
    0
 49
0
 74
    0
 49
-12.7
 74
    0
  0
LTYPE
  5
42
330
5
100
AcDbSymbolTableRecord
100
AcDbLinetypeTableRecord
  2
BORDER
 70
    0
  3
Border __ __ . __ __ . __ __ . __ __ . __ __ .
 72
   65
 73
    6
 40
44.45
 49
12.7
 74
    0
 49
-6.35
 74
    0
 49
12.7
 74
    0
 49
-6.35
 74
    0
 49
0
 74
    0
 49
-6.35
 74
    0
  0
LTYPE
  5
43
330
5
100
AcDbSymbolTableRecord
100
AcDbLinetypeTableRecord
  2
BORDERTINY
 70
    0
  3
Border (.15x) __.__.__.__.__.__.__.__.__.__.__.
 72
   65
 73
    6
 40
6.6675
 49
1.905
 74
    0
 49
-0.9525
 74
    0
 49
1.905
 74
    0
 49
-0.9525
 74
    0
 49
0
 74
    0
 49
-0.9525
 74
    0
  0
LTYPE
  5
44
330
5
100
AcDbSymbolTableRecord
100
AcDbLinetypeTableRecord
  2
BORDER2
 70
    0
  3
Border (.5x) __.__.__.__.__.__.__.__.__.__.__.
 72
   65
 73
    6
 40
22.225
 49
6.35
 74
    0
 49
-3.175
 74
    0
 49
6.35
 74
    0
 49
-3.175
 74
    0
 49
0
 74
    0
 49
-3.175
 74
    0
  0
LTYPE
  5
45
330
5
100
AcDbSymbolTableRecord
100
AcDbLinetypeTableRecord
  2
BORDERX2
 70
    0
  3
Border (2x) ____  ____  .  ____  ____  .  ___
 72
   65
 73
    6
 40
88.89999999999999
 49
25.4
 74
    0
 49
-12.7
 74
    0
 49
25.4
 74
    0
 49
-12.7
 74
    0
 49
0
 74
    0
 49
-12.7
 74
    0
  0
LTYPE
  5
46
330
5
100
AcDbSymbolTableRecord
100
AcDbLinetypeTableRecord
  2
CENTER
 70
    0
  3
Center ____ _ ____ _ ____ _ ____ _ ____ _ ____
 72
   65
 73
    4
 40
50.8
 49
31.75
 74
    0
 49
-6.35
 74
    0
 49
6.35
 74
    0
 49
-6.35
 74
    0
  0
LTYPE
  5
47
330
5
100
AcDbSymbolTableRecord
100
AcDbLinetypeTableRecord
  2
CENTERTINY
 70
    0
  3
Center (.15x) ___ _ ___ _ ___ _ ___ _ ___ _ ___
 72
   65
 73
    4
 40
7.619999999999999
 49
4.7625
 74
    0
 49
-0.9525
 74
    0
 49
0.9525
 74
    0
 49
-0.9525
 74
    0
  0
LTYPE
  5
48
330
5
100
AcDbSymbolTableRecord
100
AcDbLinetypeTableRecord
  2
CENTER2
 70
    0
  3
Center (.5x) ___ _ ___ _ ___ _ ___ _ ___ _ ___
 72
   65
 73
    4
 40
28.575
 49
19.05
 74
    0
 49
-3.175
 74
    0
 49
3.175
 74
    0
 49
-3.175
 74
    0
  0
LTYPE
  5
49
330
5
100
AcDbSymbolTableRecord
100
AcDbLinetypeTableRecord
  2
CENTERX2
 70
    0
  3
Center (2x) ________  __  ________  __  _____
 72
   65
 73
    4
 40
101.6
 49
63.5
 74
    0
 49
-12.7
 74
    0
 49
12.7
 74
    0
 49
-12.7
 74
    0
  0
ENDTAB
  0
TABLE
  2
LAYER
  5
2
330
0
100
AcDbSymbolTable
 70
    1
  0
LAYER
  5
10
330
2
100
AcDbSymbolTableRecord
100
AcDbLayerTableRecord
  2
0
 70
    0
 62
    7
  6
CONTINUOUS
370
   70
390
F
  0
LAYER
  5
4A
330
2
100
AcDbSymbolTableRecord
100
AcDbLayerTableRecord
  2
1
 70
    0
 62
    7
  6
CONTINUOUS
370
   70
390
F
  0
LAYER
  5
4B
330
2
100
AcDbSymbolTableRecord
100
AcDbLayerTableRecord
  2
2
 70
    1
 62
    7
  6
CONTINUOUS
370
   70
390
F
  0
LAYER
  5
4C
330
2
100
AcDbSymbolTableRecord
100
AcDbLayerTableRecord
  2
back
 70
    0
 62
  253
420
10526884
  6
DASHED2
370
   13
390
F
  0
LAYER
  5
4D
330
2
100
AcDbSymbolTableRecord
100
AcDbLayerTableRecord
  2
decor
 70
    1
 62
    5
  6
CONTINUOUS
370
   70
390
F
  0
LAYER
  5
4E
330
2
100
AcDbSymbolTableRecord
100
AcDbLayerTableRecord
  2
fill
 70
    0
 62
    7
  6
CONTINUOUS
370
    0
390
F
  0
LAYER
  5
4F
330
2
100
AcDbSymbolTableRecord
100
AcDbLayerTableRecord
  2
help
 70
    1
 62
    1
  6
CONTINUOUS
290
0
370
    0
390
F
  0
LAYER
  5
50
330
2
100
AcDbSymbolTableRecord
100
AcDbLayerTableRecord
  2
measurements
 70
    0
 62
    8
  6
CONTINUOUS
370
   13
390
F
  0
ENDTAB
  0
TABLE
  2
STYLE
  5
3
330
0
100
AcDbSymbolTable
 70
    3
  0
STYLE
  5
51
330
2
100
AcDbSymbolTableRecord
100
AcDbTextStyleTableRecord
  2
iso
 70
    0
 40
0
 41
1
 50
0
 71
    0
 42
1
  3
iso
  4

  0
STYLE
  5
52
330
2
100
AcDbSymbolTableRecord
100
AcDbTextStyleTableRecord
  2
Standard
 70
    0
 40
0
 41
1
 50
0
 71
    0
 42
1
  3
txt
  4

  0
ENDTAB
  0
TABLE
  2
VIEW
  5
6
330
0
100
AcDbSymbolTable
 70
    0
  0
ENDTAB
  0
TABLE
  2
UCS
  5
7
330
0
100
AcDbSymbolTable
 70
    0
  0
ENDTAB
  0
TABLE
  2
APPID
  5
9
330
0
100
AcDbSymbolTable
 70
    1
  0
APPID
  5
12
330
9
100
AcDbSymbolTableRecord
100
AcDbRegAppTableRecord
  2
ACAD
 70
    0
  0
APPID
  5
53
330
9
100
AcDbSymbolTableRecord
100
AcDbRegAppTableRecord
  2
LibreCad
 70
    0
  0
ENDTAB
  0
TABLE
  2
DIMSTYLE
  5
A
330
0
100
AcDbSymbolTable
 70
    1
100
AcDbDimStyleTable
 71
    1
  0
DIMSTYLE
105
54
330
A
100
AcDbSymbolTableRecord
100
AcDbDimStyleTableRecord
  2
Standard
 70
    0
 40
20
 41
2.5
 42
0.625
 43
0.38
 44
1.25
 45
0
 46
0
 47
0
 48
0
 49
1
140
2.5
141
0.09
142
0
143
25.4
144
1
145
0
146
1
147
0.625
148
0
 71
    0
 72
    0
 73
    0
 74
    1
 75
    0
 76
    0
 77
    0
 78
    8
 79
    0
170
    0
171
    2
172
    0
173
    0
174
    0
175
    0
176
    0
177
    0
178
    0
179
    0
271
    2
272
    4
273
    2
274
    2
275
    0
276
    0
277
    2
278
   44
279
    0
280
    0
281
    0
282
    0
283
    1
284
    0
285
    0
286
    0
288
    0
289
    3
340
standard
341

371
   -2
372
   -2
  0
ENDTAB
  0
TABLE
  2
BLOCK_RECORD
  5
1
330
0
100
AcDbSymbolTable
 70
    2
  0
BLOCK_RECORD
  5
1F
330
1
100
AcDbSymbolTableRecord
100
AcDbBlockTableRecord
  2
*Model_Space
 70
    0
280
    1
281
    0
  0
BLOCK_RECORD
  5
1E
330
1
100
AcDbSymbolTableRecord
100
AcDbBlockTableRecord
  2
*Paper_Space
 70
    0
280
    1
281
    0
  0
BLOCK_RECORD
  5
55
330
1
100
AcDbSymbolTableRecord
100
AcDbBlockTableRecord
  2
*D12
 70
    0
280
    1
281
    0
  0
BLOCK_RECORD
  5
58
330
1
100
AcDbSymbolTableRecord
100
AcDbBlockTableRecord
  2
*D4
 70
    0
280
    1
281
    0
  0
BLOCK_RECORD
  5
5B
330
1
100
AcDbSymbolTableRecord
100
AcDbBlockTableRecord
  2
*D23
 70
    0
280
    1
281
    0
  0
BLOCK_RECORD
  5
5E
330
1
100
AcDbSymbolTableRecord
100
AcDbBlockTableRecord
  2
*D2
 70
    0
280
    1
281
    0
  0
BLOCK_RECORD
  5
61
330
1
100
AcDbSymbolTableRecord
100
AcDbBlockTableRecord
  2
*D17
 70
    0
280
    1
281
    0
  0
BLOCK_RECORD
  5
64
330
1
100
AcDbSymbolTableRecord
100
AcDbBlockTableRecord
  2
*D16
 70
    0
280
    1
281
    0
  0
BLOCK_RECORD
  5
67
330
1
100
AcDbSymbolTableRecord
100
AcDbBlockTableRecord
  2
*D19
 70
    0
280
    1
281
    0
  0
BLOCK_RECORD
  5
6A
330
1
100
AcDbSymbolTableRecord
100
AcDbBlockTableRecord
  2
*D20
 70
    0
280
    1
281
    0
  0
BLOCK_RECORD
  5
6D
330
1
100
AcDbSymbolTableRecord
100
AcDbBlockTableRecord
  2
*D15
 70
    0
280
    1
281
    0
  0
BLOCK_RECORD
  5
70
330
1
100
AcDbSymbolTableRecord
100
AcDbBlockTableRecord
  2
*D3
 70
    0
280
    1
281
    0
  0
BLOCK_RECORD
  5
73
330
1
100
AcDbSymbolTableRecord
100
AcDbBlockTableRecord
  2
*D9
 70
    0
280
    1
281
    0
  0
BLOCK_RECORD
  5
76
330
1
100
AcDbSymbolTableRecord
100
AcDbBlockTableRecord
  2
*D18
 70
    0
280
    1
281
    0
  0
BLOCK_RECORD
  5
79
330
1
100
AcDbSymbolTableRecord
100
AcDbBlockTableRecord
  2
*D5
 70
    0
280
    1
281
    0
  0
BLOCK_RECORD
  5
7C
330
1
100
AcDbSymbolTableRecord
100
AcDbBlockTableRecord
  2
*D7
 70
    0
280
    1
281
    0
  0
BLOCK_RECORD
  5
7F
330
1
100
AcDbSymbolTableRecord
100
AcDbBlockTableRecord
  2
*D14
 70
    0
280
    1
281
    0
  0
BLOCK_RECORD
  5
82
330
1
100
AcDbSymbolTableRecord
100
AcDbBlockTableRecord
  2
*D6
 70
    0
280
    1
281
    0
  0
BLOCK_RECORD
  5
85
330
1
100
AcDbSymbolTableRecord
100
AcDbBlockTableRecord
  2
*D8
 70
    0
280
    1
281
    0
  0
BLOCK_RECORD
  5
88
330
1
100
AcDbSymbolTableRecord
100
AcDbBlockTableRecord
  2
*D1
 70
    0
280
    1
281
    0
  0
BLOCK_RECORD
  5
8B
330
1
100
AcDbSymbolTableRecord
100
AcDbBlockTableRecord
  2
*D24
 70
    0
280
    1
281
    0
  0
BLOCK_RECORD
  5
8E
330
1
100
AcDbSymbolTableRecord
100
AcDbBlockTableRecord
  2
*D10
 70
    0
280
    1
281
    0
  0
BLOCK_RECORD
  5
91
330
1
100
AcDbSymbolTableRecord
100
AcDbBlockTableRecord
  2
*D11
 70
    0
280
    1
281
    0
  0
BLOCK_RECORD
  5
94
330
1
100
AcDbSymbolTableRecord
100
AcDbBlockTableRecord
  2
*D13
 70
    0
280
    1
281
    0
  0
BLOCK_RECORD
  5
97
330
1
100
AcDbSymbolTableRecord
100
AcDbBlockTableRecord
  2
*D21
 70
    0
280
    1
281
    0
  0
BLOCK_RECORD
  5
9A
330
1
100
AcDbSymbolTableRecord
100
AcDbBlockTableRecord
  2
*D22
 70
    0
280
    1
281
    0
  0
ENDTAB
  0
ENDSEC
  0
SECTION
  2
BLOCKS
  0
BLOCK
  5
20
330
1F
100
AcDbEntity
  8
0
100
AcDbBlockBegin
  2
*Model_Space
 70
    0
 10
0
 20
0
 30
0
  3
*Model_Space
  1

  0
ENDBLK
  5
21
330
1F
100
AcDbEntity
  8
0
100
AcDbBlockEnd
  0
BLOCK
  5
1C
330
1B
100
AcDbEntity
  8
0
100
AcDbBlockBegin
  2
*Paper_Space
 70
    0
 10
0
 20
0
 30
0
  3
*Paper_Space
  1

  0
ENDBLK
  5
1D
330
1F
100
AcDbEntity
  8
0
100
AcDbBlockEnd
  0
BLOCK
  5
56
330
55
100
AcDbEntity
  8
0
100
AcDbBlockBegin
  2
*D12
 70
    1
 10
0
 20
0
  3
*D12
  1

  0
LINE
  5
9D
100
AcDbEntity
  8
measurements
  6
ByBlock
 62
    0
370
   -2
100
AcDbLine
 10
17600
 20
77.5
 11
17600
 21
-535
  0
LINE
  5
9E
100
AcDbEntity
  8
measurements
  6
ByBlock
 62
    0
370
   -2
100
AcDbLine
 10
17640
 20
77.5
 11
17640
 21
-535
  0
LINE
  5
9F
100
AcDbEntity
  8
measurements
  6
ByBlock
 62
    0
370
   -2
100
AcDbLine
 10
17500
 20
-510
 11
17740
 21
-510
  0
MTEXT
  5
A0
100
AcDbEntity
  8
measurements
  6
CONTINUOUS
 62
    0
370
   -2
100
AcDbMText
 10
17685.83333333333
 20
-472.5
 30
0
 40
50
 41
66.66666666666666
 71
    5
 72
    1
  1
40
  7
standard
210
0
220
0
230
1
 50
0
 73
    2
 44
1
  0
SOLID
  5
A1
100
AcDbEntity
  8
measurements
  6
ByBlock
 62
    0
370
   -2
100
AcDbTrace
 10
17600
 20
-510
 30
0
 11
17550
 21
-518.3256931554569
 31
0
 12
17550
 22
-501.6743068445432
 32
0
 13
17550
 23
-501.6743068445432
 33
0
  0
SOLID
  5
A2
100
AcDbEntity
  8
measurements
  6
ByBlock
 62
    0
370
   -2
100
AcDbTrace
 10
17640
 20
-510
 30
0
 11
17690
 21
-501.6743068445432
 31
0
 12
17690
 22
-518.3256931554569
 32
0
 13
17690
 23
-518.3256931554569
 33
0
  0
ENDBLK
  5
57
330
55
100
AcDbEntity
  8
0
100
AcDbBlockEnd
  0
BLOCK
  5
59
330
58
100
AcDbEntity
  8
0
100
AcDbBlockBegin
  2
*D4
 70
    1
 10
0
 20
0
  3
*D4
  1

  0
LINE
  5
A3
100
AcDbEntity
  8
measurements
  6
ByBlock
 62
    0
370
   -2
100
AcDbLine
 10
18762.5
 20
-1879
 11
18650
 21
-1879
  0
LINE
  5
A4
100
AcDbEntity
  8
measurements
  6
ByBlock
 62
    0
370
   -2
100
AcDbLine
 10
18762.5
 20
-1419
 11
18650
 21
-1419
  0
LINE
  5
A5
100
AcDbEntity
  8
measurements
  6
ByBlock
 62
    0
370
   -2
100
AcDbLine
 10
18675
 20
-1879
 11
18675
 21
-1419
  0
MTEXT
  5
A6
100
AcDbEntity
  8
measurements
  6
CONTINUOUS
 62
    0
370
   -2
100
AcDbMText
 10
18637.5
 20
-1649
 30
0
 40
50
 41
105.5555555555587
 71
    5
 72
    1
  1
460
  7
standard
210
0
220
0
230
1
 50
90
 73
    2
 44
1
  0
SOLID
  5
A7
100
AcDbEntity
  8
measurements
  6
ByBlock
 62
    0
370
   -2
100
AcDbTrace
 10
18675
 20
-1879
 30
0
 11
18666.67430684454
 21
-1829
 31
0
 12
18683.32569315546
 22
-1829
 32
0
 13
18683.32569315546
 23
-1829
 33
0
  0
SOLID
  5
A8
100
AcDbEntity
  8
measurements
  6
ByBlock
 62
    0
370
   -2
100
AcDbTrace
 10
18675
 20
-1419
 30
0
 11
18683.32569315546
 21
-1469
 31
0
 12
18666.67430684454
 22
-1469
 32
0
 13
18666.67430684454
 23
-1469
 33
0
  0
ENDBLK
  5
5A
330
58
100
AcDbEntity
  8
0
100
AcDbBlockEnd
  0
BLOCK
  5
5C
330
5B
100
AcDbEntity
  8
0
100
AcDbBlockBegin
  2
*D23
 70
    1
 10
0
 20
0
  3
*D23
  1

  0
LINE
  5
A9
100
AcDbEntity
  8
measurements
  6
ByBlock
 62
    0
370
   -2
100
AcDbLine
 10
17638
 20
-2081.5
 11
17638
 21
-2225
  0
LINE
  5
AA
100
AcDbEntity
  8
measurements
  6
ByBlock
 62
    0
370
   -2
100
AcDbLine
 10
17925
 20
-2081.5
 11
17925
 21
-2225
  0
LINE
  5
AB
100
AcDbEntity
  8
measurements
  6
ByBlock
 62
    0
370
   -2
100
AcDbLine
 10
17638
 20
-2200
 11
17925
 21
-2200
  0
MTEXT
  5
AC
100
AcDbEntity
  8
measurements
  6
CONTINUOUS
 62
    0
370
   -2
100
AcDbMText
 10
17781.5
 20
-2162.5
 30
0
 40
50
 41
100
 71
    5
 72
    1
  1
287
  7
standard
210
0
220
0
230
1
 50
0
 73
    2
 44
1
  0
SOLID
  5
AD
100
AcDbEntity
  8
measurements
  6
ByBlock
 62
    0
370
   -2
100
AcDbTrace
 10
17638
 20
-2200
 30
0
 11
17688
 21
-2191.674306844543
 31
0
 12
17688
 22
-2208.325693155457
 32
0
 13
17688
 23
-2208.325693155457
 33
0
  0
SOLID
  5
AE
100
AcDbEntity
  8
measurements
  6
ByBlock
 62
    0
370
   -2
100
AcDbTrace
 10
17925
 20
-2200
 30
0
 11
17875
 21
-2208.325693155457
 31
0
 12
17875
 22
-2191.674306844543
 32
0
 13
17875
 23
-2191.674306844543
 33
0
  0
ENDBLK
  5
5D
330
5B
100
AcDbEntity
  8
0
100
AcDbBlockEnd
  0
BLOCK
  5
5F
330
5E
100
AcDbEntity
  8
0
100
AcDbBlockBegin
  2
*D2
 70
    1
 10
0
 20
0
  3
*D2
  1

  0
LINE
  5
AF
100
AcDbEntity
  8
measurements
  6
ByBlock
 62
    0
370
   -2
100
AcDbLine
 10
19900
 20
-3012.5
 11
19900
 21
-3244
  0
LINE
  5
B0
100
AcDbEntity
  8
measurements
  6
ByBlock
 62
    0
370
   -2
100
AcDbLine
 10
20500
 20
-3012.5
 11
20500
 21
-3244
  0
LINE
  5
B1
100
AcDbEntity
  8
measurements
  6
ByBlock
 62
    0
370
   -2
100
AcDbLine
 10
19900
 20
-3219
 11
20500
 21
-3219
  0
MTEXT
  5
B2
100
AcDbEntity
  8
measurements
  6
CONTINUOUS
 62
    0
370
   -2
100
AcDbMText
 10
20200
 20
-3181.5
 30
0
 40
50
 41
100.0000000000031
 71
    5
 72
    1
  1
600
  7
standard
210
0
220
0
230
1
 50
0
 73
    2
 44
1
  0
SOLID
  5
B3
100
AcDbEntity
  8
measurements
  6
ByBlock
 62
    0
370
   -2
100
AcDbTrace
 10
19900
 20
-3219
 30
0
 11
19950
 21
-3210.674306844543
 31
0
 12
19950
 22
-3227.325693155457
 32
0
 13
19950
 23
-3227.325693155457
 33
0
  0
SOLID
  5
B4
100
AcDbEntity
  8
measurements
  6
ByBlock
 62
    0
370
   -2
100
AcDbTrace
 10
20500
 20
-3219
 30
0
 11
20450
 21
-3227.325693155457
 31
0
 12
20450
 22
-3210.674306844543
 32
0
 13
20450
 23
-3210.674306844543
 33
0
  0
ENDBLK
  5
60
330
5E
100
AcDbEntity
  8
0
100
AcDbBlockEnd
  0
BLOCK
  5
62
330
61
100
AcDbEntity
  8
0
100
AcDbBlockBegin
  2
*D17
 70
    1
 10
0
 20
0
  3
*D17
  1

  0
LINE
  5
B5
100
AcDbEntity
  8
measurements
  6
ByBlock
 62
    0
370
   -2
100
AcDbLine
 10
16187.5
 20
-1879
 11
16075
 21
-1879
  0
LINE
  5
B6
100
AcDbEntity
  8
measurements
  6
ByBlock
 62
    0
370
   -2
100
AcDbLine
 10
16187.5
 20
-1419
 11
16075
 21
-1419
  0
LINE
  5
B7
100
AcDbEntity
  8
measurements
  6
ByBlock
 62
    0
370
   -2
100
AcDbLine
 10
16100
 20
-1879
 11
16100
 21
-1419
  0
MTEXT
  5
B8
100
AcDbEntity
  8
measurements
  6
CONTINUOUS
 62
    0
370
   -2
100
AcDbMText
 10
16062.5
 20
-1649
 30
0
 40
50
 41
105.5555555555587
 71
    5
 72
    1
  1
460
  7
standard
210
0
220
0
230
1
 50
90
 73
    2
 44
1
  0
SOLID
  5
B9
100
AcDbEntity
  8
measurements
  6
ByBlock
 62
    0
370
   -2
100
AcDbTrace
 10
16100
 20
-1879
 30
0
 11
16091.67430684454
 21
-1829
 31
0
 12
16108.32569315546
 22
-1829
 32
0
 13
16108.32569315546
 23
-1829
 33
0
  0
SOLID
  5
BA
100
AcDbEntity
  8
measurements
  6
ByBlock
 62
    0
370
   -2
100
AcDbTrace
 10
16100
 20
-1419
 30
0
 11
16108.32569315546
 21
-1469
 31
0
 12
16091.67430684454
 22
-1469
 32
0
 13
16091.67430684454
 23
-1469
 33
0
  0
ENDBLK
  5
63
330
61
100
AcDbEntity
  8
0
100
AcDbBlockEnd
  0
BLOCK
  5
65
330
64
100
AcDbEntity
  8
0
100
AcDbBlockBegin
  2
*D16
 70
    1
 10
0
 20
0
  3
*D16
  1

  0
LINE
  5
BB
100
AcDbEntity
  8
measurements
  6
ByBlock
 62
    0
370
   -2
100
AcDbLine
 10
17325
 20
-3012.5
 11
17325
 21
-3244
  0
LINE
  5
BC
100
AcDbEntity
  8
measurements
  6
ByBlock
 62
    0
370
   -2
100
AcDbLine
 10
16200
 20
-3012.5
 11
16200
 21
-3244
  0
LINE
  5
BD
100
AcDbEntity
  8
measurements
  6
ByBlock
 62
    0
370
   -2
100
AcDbLine
 10
17325
 20
-3219
 11
16200
 21
-3219
  0
MTEXT
  5
BE
100
AcDbEntity
  8
measurements
  6
CONTINUOUS
 62
    0
370
   -2
100
AcDbMText
 10
16762.5
 20
-3181.5
 30
0
 40
50
 41
116.6666666666698
 71
    5
 72
    1
  1
1125
  7
standard
210
0
220
0
230
1
 50
0
 73
    2
 44
1
  0
SOLID
  5
BF
100
AcDbEntity
  8
measurements
  6
ByBlock
 62
    0
370
   -2
100
AcDbTrace
 10
17325
 20
-3219
 30
0
 11
17275
 21
-3227.325693155457
 31
0
 12
17275
 22
-3210.674306844543
 32
0
 13
17275
 23
-3210.674306844543
 33
0
  0
SOLID
  5
C0
100
AcDbEntity
  8
measurements
  6
ByBlock
 62
    0
370
   -2
100
AcDbTrace
 10
16200
 20
-3219
 30
0
 11
16250
 21
-3210.674306844543
 31
0
 12
16250
 22
-3227.325693155457
 32
0
 13
16250
 23
-3227.325693155457
 33
0
  0
ENDBLK
  5
66
330
64
100
AcDbEntity
  8
0
100
AcDbBlockEnd
  0
BLOCK
  5
68
330
67
100
AcDbEntity
  8
0
100
AcDbBlockBegin
  2
*D19
 70
    1
 10
0
 20
0
  3
*D19
  1

  0
LINE
  5
C1
100
AcDbEntity
  8
measurements
  6
ByBlock
 62
    0
370
   -2
100
AcDbLine
 10
17937.5
 20
-3000
 11
18085
 21
-3000
  0
LINE
  5
C2
100
AcDbEntity
  8
measurements
  6
ByBlock
 62
    0
370
   -2
100
AcDbLine
 10
17937.5
 20
-2069
 11
18085
 21
-2069
  0
LINE
  5
C3
100
AcDbEntity
  8
measurements
  6
ByBlock
 62
    0
370
   -2
100
AcDbLine
 10
18060
 20
-3000
 11
18060
 21
-2069
  0
MTEXT
  5
C4
100
AcDbEntity
  8
measurements
  6
CONTINUOUS
 62
    0
370
   -2
100
AcDbMText
 10
18022.5
 20
-2534.5
 30
0
 40
50
 41
88.8888888888951
 71
    5
 72
    1
  1
931
  7
standard
210
0
220
0
230
1
 50
90
 73
    2
 44
1
  0
SOLID
  5
C5
100
AcDbEntity
  8
measurements
  6
ByBlock
 62
    0
370
   -2
100
AcDbTrace
 10
18060
 20
-3000
 30
0
 11
18051.67430684454
 21
-2950
 31
0
 12
18068.32569315546
 22
-2950
 32
0
 13
18068.32569315546
 23
-2950
 33
0
  0
SOLID
  5
C6
100
AcDbEntity
  8
measurements
  6
ByBlock
 62
    0
370
   -2
100
AcDbTrace
 10
18060
 20
-2069
 30
0
 11
18068.32569315546
 21
-2119
 31
0
 12
18051.67430684454
 22
-2119
 32
0
 13
18051.67430684454
 23
-2119
 33
0
  0
ENDBLK
  5
69
330
67
100
AcDbEntity
  8
0
100
AcDbBlockEnd
  0
BLOCK
  5
6B
330
6A
100
AcDbEntity
  8
0
100
AcDbBlockBegin
  2
*D20
 70
    1
 10
0
 20
0
  3
*D20
  1

  0
LINE
  5
C7
100
AcDbEntity
  8
measurements
  6
ByBlock
 62
    0
370
   -2
100
AcDbLine
 10
16412.5
 20
-3000
 11
16425
 21
-3000
  0
LINE
  5
C8
100
AcDbEntity
  8
measurements
  6
ByBlock
 62
    0
370
   -2
100
AcDbLine
 10
17337.5
 20
-3000
 11
17350
 21
-3000
  0
LINE
  5
C9
100
AcDbEntity
  8
measurements
  6
ByBlock
 62
    0
370
   -2
100
AcDbLine
 10
16400
 20
-3000
 11
17325
 21
-3000
  0
MTEXT
  5
CA
100
AcDbEntity
  8
measurements
  6
CONTINUOUS
 62
    0
370
   -2
100
AcDbMText
 10
16862.5
 20
-2962.5
 30
0
 40
50
 41
100.0000000000062
 71
    5
 72
    1
  1
925
  7
standard
210
0
220
0
230
1
 50
0
 73
    2
 44
1
  0
SOLID
  5
CB
100
AcDbEntity
  8
measurements
  6
ByBlock
 62
    0
370
   -2
100
AcDbTrace
 10
16400
 20
-3000
 30
0
 11
16450
 21
-2991.674306844543
 31
0
 12
16450
 22
-3008.325693155457
 32
0
 13
16450
 23
-3008.325693155457
 33
0
  0
SOLID
  5
CC
100
AcDbEntity
  8
measurements
  6
ByBlock
 62
    0
370
   -2
100
AcDbTrace
 10
17325
 20
-3000
 30
0
 11
17275
 21
-3008.325693155457
 31
0
 12
17275
 22
-2991.674306844543
 32
0
 13
17275
 23
-2991.674306844543
 33
0
  0
ENDBLK
  5
6C
330
6A
100
AcDbEntity
  8
0
100
AcDbBlockEnd
  0
BLOCK
  5
6E
330
6D
100
AcDbEntity
  8
0
100
AcDbBlockBegin
  2
*D15
 70
    1
 10
0
 20
0
  3
*D15
  1

  0
LINE
  5
CD
100
AcDbEntity
  8
measurements
  6
ByBlock
 62
    0
370
   -2
100
AcDbLine
 10
17325
 20
-3012.5
 11
17325
 21
-3244
  0
LINE
  5
CE
100
AcDbEntity
  8
measurements
  6
ByBlock
 62
    0
370
   -2
100
AcDbLine
 10
17925
 20
-3012.5
 11
17925
 21
-3244
  0
LINE
  5
CF
100
AcDbEntity
  8
measurements
  6
ByBlock
 62
    0
370
   -2
100
AcDbLine
 10
17325
 20
-3219
 11
17925
 21
-3219
  0
MTEXT
  5
D0
100
AcDbEntity
  8
measurements
  6
CONTINUOUS
 62
    0
370
   -2
100
AcDbMText
 10
17625
 20
-3181.5
 30
0
 40
50
 41
100.0000000000031
 71
    5
 72
    1
  1
600
  7
standard
210
0
220
0
230
1
 50
0
 73
    2
 44
1
  0
SOLID
  5
D1
100
AcDbEntity
  8
measurements
  6
ByBlock
 62
    0
370
   -2
100
AcDbTrace
 10
17325
 20
-3219
 30
0
 11
17375
 21
-3210.674306844543
 31
0
 12
17375
 22
-3227.325693155457
 32
0
 13
17375
 23
-3227.325693155457
 33
0
  0
SOLID
  5
D2
100
AcDbEntity
  8
measurements
  6
ByBlock
 62
    0
370
   -2
100
AcDbTrace
 10
17925
 20
-3219
 30
0
 11
17875
 21
-3227.325693155457
 31
0
 12
17875
 22
-3210.674306844543
 32
0
 13
17875
 23
-3210.674306844543
 33
0
  0
ENDBLK
  5
6F
330
6D
100
AcDbEntity
  8
0
100
AcDbBlockEnd
  0
BLOCK
  5
71
330
70
100
AcDbEntity
  8
0
100
AcDbBlockBegin
  2
*D3
 70
    1
 10
0
 20
0
  3
*D3
  1

  0
LINE
  5
D3
100
AcDbEntity
  8
measurements
  6
ByBlock
 62
    0
370
   -2
100
AcDbLine
 10
19900
 20
-3012.5
 11
19900
 21
-3244
  0
LINE
  5
D4
100
AcDbEntity
  8
measurements
  6
ByBlock
 62
    0
370
   -2
100
AcDbLine
 10
18775
 20
-3012.5
 11
18775
 21
-3244
  0
LINE
  5
D5
100
AcDbEntity
  8
measurements
  6
ByBlock
 62
    0
370
   -2
100
AcDbLine
 10
19900
 20
-3219
 11
18775
 21
-3219
  0
MTEXT
  5
D6
100
AcDbEntity
  8
measurements
  6
CONTINUOUS
 62
    0
370
   -2
100
AcDbMText
 10
19337.5
 20
-3181.5
 30
0
 40
50
 41
116.6666666666698
 71
    5
 72
    1
  1
1125
  7
standard
210
0
220
0
230
1
 50
0
 73
    2
 44
1
  0
SOLID
  5
D7
100
AcDbEntity
  8
measurements
  6
ByBlock
 62
    0
370
   -2
100
AcDbTrace
 10
19900
 20
-3219
 30
0
 11
19850
 21
-3227.325693155457
 31
0
 12
19850
 22
-3210.674306844543
 32
0
 13
19850
 23
-3210.674306844543
 33
0
  0
SOLID
  5
D8
100
AcDbEntity
  8
measurements
  6
ByBlock
 62
    0
370
   -2
100
AcDbTrace
 10
18775
 20
-3219
 30
0
 11
18825
 21
-3210.674306844543
 31
0
 12
18825
 22
-3227.325693155457
 32
0
 13
18825
 23
-3227.325693155457
 33
0
  0
ENDBLK
  5
72
330
70
100
AcDbEntity
  8
0
100
AcDbBlockEnd
  0
BLOCK
  5
74
330
73
100
AcDbEntity
  8
0
100
AcDbBlockBegin
  2
*D9
 70
    1
 10
0
 20
0
  3
*D9
  1

  0
LINE
  5
D9
100
AcDbEntity
  8
measurements
  6
ByBlock
 62
    0
370
   -2
100
AcDbLine
 10
19071.5
 20
-240
 11
19084
 21
-240
  0
LINE
  5
DA
100
AcDbEntity
  8
measurements
  6
ByBlock
 62
    0
370
   -2
100
AcDbLine
 10
19659.5
 20
-240
 11
19672
 21
-240
  0
LINE
  5
DB
100
AcDbEntity
  8
measurements
  6
ByBlock
 62
    0
370
   -2
100
AcDbLine
 10
19059
 20
-240
 11
19647
 21
-240
  0
MTEXT
  5
DC
100
AcDbEntity
  8
measurements
  6
CONTINUOUS
 62
    0
370
   -2
100
AcDbMText
 10
19353
 20
-202.5
 30
0
 40
50
 41
100.0000000000031
 71
    5
 72
    1
  1
588
  7
standard
210
0
220
0
230
1
 50
0
 73
    2
 44
1
  0
SOLID
  5
DD
100
AcDbEntity
  8
measurements
  6
ByBlock
 62
    0
370
   -2
100
AcDbTrace
 10
19059
 20
-240
 30
0
 11
19109
 21
-231.6743068445432
 31
0
 12
19109
 22
-248.3256931554568
 32
0
 13
19109
 23
-248.3256931554568
 33
0
  0
SOLID
  5
DE
100
AcDbEntity
  8
measurements
  6
ByBlock
 62
    0
370
   -2
100
AcDbTrace
 10
19647
 20
-240
 30
0
 11
19597
 21
-248.3256931554568
 31
0
 12
19597
 22
-231.6743068445432
 32
0
 13
19597
 23
-231.6743068445432
 33
0
  0
ENDBLK
  5
75
330
73
100
AcDbEntity
  8
0
100
AcDbBlockEnd
  0
BLOCK
  5
77
330
76
100
AcDbEntity
  8
0
100
AcDbBlockBegin
  2
*D18
 70
    1
 10
0
 20
0
  3
*D18
  1

  0
LINE
  5
DF
100
AcDbEntity
  8
measurements
  6
ByBlock
 62
    0
370
   -2
100
AcDbLine
 10
17356.5
 20
-2981
 11
17525
 21
-2981
  0
LINE
  5
E0
100
AcDbEntity
  8
measurements
  6
ByBlock
 62
    0
370
   -2
100
AcDbLine
 10
17356.5
 20
-2088
 11
17525
 21
-2088
  0
LINE
  5
E1
100
AcDbEntity
  8
measurements
  6
ByBlock
 62
    0
370
   -2
100
AcDbLine
 10
17500
 20
-2981
 11
17500
 21
-2088
  0
MTEXT
  5
E2
100
AcDbEntity
  8
measurements
  6
CONTINUOUS
 62
    0
370
   -2
100
AcDbMText
 10
17462.5
 20
-2534.5
 30
0
 40
50
 41
100.0000000000031
 71
    5
 72
    1
  1
893
  7
standard
210
0
220
0
230
1
 50
90
 73
    2
 44
1
  0
SOLID
  5
E3
100
AcDbEntity
  8
measurements
  6
ByBlock
 62
    0
370
   -2
100
AcDbTrace
 10
17500
 20
-2981
 30
0
 11
17491.67430684454
 21
-2931
 31
0
 12
17508.32569315546
 22
-2931
 32
0
 13
17508.32569315546
 23
-2931
 33
0
  0
SOLID
  5
E4
100
AcDbEntity
  8
measurements
  6
ByBlock
 62
    0
370
   -2
100
AcDbTrace
 10
17500
 20
-2088
 30
0
 11
17508.32569315546
 21
-2138
 31
0
 12
17491.67430684454
 22
-2138
 32
0
 13
17491.67430684454
 23
-2138
 33
0
  0
ENDBLK
  5
78
330
76
100
AcDbEntity
  8
0
100
AcDbBlockEnd
  0
BLOCK
  5
7A
330
79
100
AcDbEntity
  8
0
100
AcDbBlockBegin
  2
*D5
 70
    1
 10
0
 20
0
  3
*D5
  1

  0
LINE
  5
E5
100
AcDbEntity
  8
measurements
  6
ByBlock
 62
    0
370
   -2
100
AcDbLine
 10
20512.5
 20
-3000
 11
20660
 21
-3000
  0
LINE
  5
E6
100
AcDbEntity
  8
measurements
  6
ByBlock
 62
    0
370
   -2
100
AcDbLine
 10
20512.5
 20
-2069
 11
20660
 21
-2069
  0
LINE
  5
E7
100
AcDbEntity
  8
measurements
  6
ByBlock
 62
    0
370
   -2
100
AcDbLine
 10
20635
 20
-3000
 11
20635
 21
-2069
  0
MTEXT
  5
E8
100
AcDbEntity
  8
measurements
  6
CONTINUOUS
 62
    0
370
   -2
100
AcDbMText
 10
20597.5
 20
-2534.5
 30
0
 40
50
 41
88.8888888888951
 71
    5
 72
    1
  1
931
  7
standard
210
0
220
0
230
1
 50
90
 73
    2
 44
1
  0
SOLID
  5
E9
100
AcDbEntity
  8
measurements
  6
ByBlock
 62
    0
370
   -2
100
AcDbTrace
 10
20635
 20
-3000
 30
0
 11
20626.67430684454
 21
-2950
 31
0
 12
20643.32569315546
 22
-2950
 32
0
 13
20643.32569315546
 23
-2950
 33
0
  0
SOLID
  5
EA
100
AcDbEntity
  8
measurements
  6
ByBlock
 62
    0
370
   -2
100
AcDbTrace
 10
20635
 20
-2069
 30
0
 11
20643.32569315546
 21
-2119
 31
0
 12
20626.67430684454
 22
-2119
 32
0
 13
20626.67430684454
 23
-2119
 33
0
  0
ENDBLK
  5
7B
330
79
100
AcDbEntity
  8
0
100
AcDbBlockEnd
  0
BLOCK
  5
7D
330
7C
100
AcDbEntity
  8
0
100
AcDbBlockBegin
  2
*D7
 70
    1
 10
0
 20
0
  3
*D7
  1

  0
LINE
  5
EB
100
AcDbEntity
  8
measurements
  6
ByBlock
 62
    0
370
   -2
100
AcDbLine
 10
17603
 20
-199.9000000000001
 11
17603
 21
-265
  0
LINE
  5
EC
100
AcDbEntity
  8
measurements
  6
ByBlock
 62
    0
370
   -2
100
AcDbLine
 10
18083
 20
-199.9000000000001
 11
18083
 21
-265
  0
LINE
  5
ED
100
AcDbEntity
  8
measurements
  6
ByBlock
 62
    0
370
   -2
100
AcDbLine
 10
17603
 20
-240
 11
18083
 21
-240
  0
MTEXT
  5
EE
100
AcDbEntity
  8
measurements
  6
CONTINUOUS
 62
    0
370
   -2
100
AcDbMText
 10
17843
 20
-202.5
 30
0
 40
50
 41
105.5555555555555
 71
    5
 72
    1
  1
480
  7
standard
210
0
220
0
230
1
 50
0
 73
    2
 44
1
  0
SOLID
  5
EF
100
AcDbEntity
  8
measurements
  6
ByBlock
 62
    0
370
   -2
100
AcDbTrace
 10
17603
 20
-240
 30
0
 11
17653
 21
-231.6743068445432
 31
0
 12
17653
 22
-248.3256931554568
 32
0
 13
17653
 23
-248.3256931554568
 33
0
  0
SOLID
  5
F0
100
AcDbEntity
  8
measurements
  6
ByBlock
 62
    0
370
   -2
100
AcDbTrace
 10
18083
 20
-240
 30
0
 11
18033
 21
-248.3256931554568
 31
0
 12
18033
 22
-231.6743068445432
 32
0
 13
18033
 23
-231.6743068445432
 33
0
  0
ENDBLK
  5
7E
330
7C
100
AcDbEntity
  8
0
100
AcDbBlockEnd
  0
BLOCK
  5
80
330
7F
100
AcDbEntity
  8
0
100
AcDbBlockBegin
  2
*D14
 70
    1
 10
0
 20
0
  3
*D14
  1

  0
LINE
  5
F1
100
AcDbEntity
  8
measurements
  6
ByBlock
 62
    0
370
   -2
100
AcDbLine
 10
16200
 20
-3031.5
 11
16200
 21
-3444
  0
LINE
  5
F2
100
AcDbEntity
  8
measurements
  6
ByBlock
 62
    0
370
   -2
100
AcDbLine
 10
17900
 20
-3031.5
 11
17900
 21
-3444
  0
LINE
  5
F3
100
AcDbEntity
  8
measurements
  6
ByBlock
 62
    0
370
   -2
100
AcDbLine
 10
16200
 20
-3419
 11
17900
 21
-3419
  0
MTEXT
  5
F4
100
AcDbEntity
  8
measurements
  6
CONTINUOUS
 62
    0
370
   -2
100
AcDbMText
 10
17050
 20
-3381.5
 30
0
 40
50
 41
127.7777777777778
 71
    5
 72
    1
  1
1700
  7
standard
210
0
220
0
230
1
 50
0
 73
    2
 44
1
  0
SOLID
  5
F5
100
AcDbEntity
  8
measurements
  6
ByBlock
 62
    0
370
   -2
100
AcDbTrace
 10
16200
 20
-3419
 30
0
 11
16250
 21
-3410.674306844543
 31
0
 12
16250
 22
-3427.325693155457
 32
0
 13
16250
 23
-3427.325693155457
 33
0
  0
SOLID
  5
F6
100
AcDbEntity
  8
measurements
  6
ByBlock
 62
    0
370
   -2
100
AcDbTrace
 10
17900
 20
-3419
 30
0
 11
17850
 21
-3427.325693155457
 31
0
 12
17850
 22
-3410.674306844543
 32
0
 13
17850
 23
-3410.674306844543
 33
0
  0
ENDBLK
  5
81
330
7F
100
AcDbEntity
  8
0
100
AcDbBlockEnd
  0
BLOCK
  5
83
330
82
100
AcDbEntity
  8
0
100
AcDbBlockBegin
  2
*D6
 70
    1
 10
0
 20
0
  3
*D6
  1

  0
LINE
  5
F7
100
AcDbEntity
  8
measurements
  6
ByBlock
 62
    0
370
   -2
100
AcDbLine
 10
18762.5
 20
-2069
 11
18650
 21
-2069
  0
LINE
  5
F8
100
AcDbEntity
  8
measurements
  6
ByBlock
 62
    0
370
   -2
100
AcDbLine
 10
18762.5
 20
-1879
 11
18650
 21
-1879
  0
LINE
  5
F9
100
AcDbEntity
  8
measurements
  6
ByBlock
 62
    0
370
   -2
100
AcDbLine
 10
18675
 20
-2069
 11
18675
 21
-1879
  0
MTEXT
  5
FA
100
AcDbEntity
  8
measurements
  6
CONTINUOUS
 62
    0
370
   -2
100
AcDbMText
 10
18637.5
 20
-1974
 30
0
 40
50
 41
88.88888888888889
 71
    5
 72
    1
  1
190
  7
standard
210
0
220
0
230
1
 50
90
 73
    2
 44
1
  0
SOLID
  5
FB
100
AcDbEntity
  8
measurements
  6
ByBlock
 62
    0
370
   -2
100
AcDbTrace
 10
18675
 20
-2069
 30
0
 11
18666.67430684454
 21
-2019
 31
0
 12
18683.32569315546
 22
-2019
 32
0
 13
18683.32569315546
 23
-2019
 33
0
  0
SOLID
  5
FC
100
AcDbEntity
  8
measurements
  6
ByBlock
 62
    0
370
   -2
100
AcDbTrace
 10
18675
 20
-1879
 30
0
 11
18683.32569315546
 21
-1929
 31
0
 12
18666.67430684454
 22
-1929
 32
0
 13
18666.67430684454
 23
-1929
 33
0
  0
ENDBLK
  5
84
330
82
100
AcDbEntity
  8
0
100
AcDbBlockEnd
  0
BLOCK
  5
86
330
85
100
AcDbEntity
  8
0
100
AcDbBlockBegin
  2
*D8
 70
    1
 10
0
 20
0
  3
*D8
  1

  0
LINE
  5
FD
100
AcDbEntity
  8
measurements
  6
ByBlock
 62
    0
370
   -2
100
AcDbLine
 10
18099.5
 20
-240
 11
18112
 21
-240
  0
LINE
  5
FE
100
AcDbEntity
  8
measurements
  6
ByBlock
 62
    0
370
   -2
100
AcDbLine
 10
19067.5
 20
-240
 11
19080
 21
-240
  0
LINE
  5
FF
100
AcDbEntity
  8
measurements
  6
ByBlock
 62
    0
370
   -2
100
AcDbLine
 10
18087
 20
-240
 11
19055
 21
-240
  0
MTEXT
  5
100
100
AcDbEntity
  8
measurements
  6
CONTINUOUS
 62
    0
370
   -2
100
AcDbMText
 10
18571
 20
-202.5
 30
0
 40
50
 41
100.0000000000062
 71
    5
 72
    1
  1
968
  7
standard
210
0
220
0
230
1
 50
0
 73
    2
 44
1
  0
SOLID
  5
101
100
AcDbEntity
  8
measurements
  6
ByBlock
 62
    0
370
   -2
100
AcDbTrace
 10
18087
 20
-240
 30
0
 11
18137
 21
-231.6743068445432
 31
0
 12
18137
 22
-248.3256931554568
 32
0
 13
18137
 23
-248.3256931554568
 33
0
  0
SOLID
  5
102
100
AcDbEntity
  8
measurements
  6
ByBlock
 62
    0
370
   -2
100
AcDbTrace
 10
19055
 20
-240
 30
0
 11
19005
 21
-248.3256931554568
 31
0
 12
19005
 22
-231.6743068445432
 32
0
 13
19005
 23
-231.6743068445432
 33
0
  0
ENDBLK
  5
87
330
85
100
AcDbEntity
  8
0
100
AcDbBlockEnd
  0
BLOCK
  5
89
330
88
100
AcDbEntity
  8
0
100
AcDbBlockBegin
  2
*D1
 70
    1
 10
0
 20
0
  3
*D1
  1

  0
LINE
  5
103
100
AcDbEntity
  8
measurements
  6
ByBlock
 62
    0
370
   -2
100
AcDbLine
 10
18775
 20
-3031.5
 11
18775
 21
-3444
  0
LINE
  5
104
100
AcDbEntity
  8
measurements
  6
ByBlock
 62
    0
370
   -2
100
AcDbLine
 10
20475
 20
-3031.5
 11
20475
 21
-3444
  0
LINE
  5
105
100
AcDbEntity
  8
measurements
  6
ByBlock
 62
    0
370
   -2
100
AcDbLine
 10
18775
 20
-3419
 11
20475
 21
-3419
  0
MTEXT
  5
106
100
AcDbEntity
  8
measurements
  6
CONTINUOUS
 62
    0
370
   -2
100
AcDbMText
 10
19625
 20
-3381.5
 30
0
 40
50
 41
127.7777777777778
 71
    5
 72
    1
  1
1700
  7
standard
210
0
220
0
230
1
 50
0
 73
    2
 44
1
  0
SOLID
  5
107
100
AcDbEntity
  8
measurements
  6
ByBlock
 62
    0
370
   -2
100
AcDbTrace
 10
18775
 20
-3419
 30
0
 11
18825
 21
-3410.674306844543
 31
0
 12
18825
 22
-3427.325693155457
 32
0
 13
18825
 23
-3427.325693155457
 33
0
  0
SOLID
  5
108
100
AcDbEntity
  8
measurements
  6
ByBlock
 62
    0
370
   -2
100
AcDbTrace
 10
20475
 20
-3419
 30
0
 11
20425
 21
-3427.325693155457
 31
0
 12
20425
 22
-3410.674306844543
 32
0
 13
20425
 23
-3410.674306844543
 33
0
  0
ENDBLK
  5
8A
330
88
100
AcDbEntity
  8
0
100
AcDbBlockEnd
  0
BLOCK
  5
8C
330
8B
100
AcDbEntity
  8
0
100
AcDbBlockBegin
  2
*D24
 70
    1
 10
0
 20
0
  3
*D24
  1

  0
LINE
  5
109
100
AcDbEntity
  8
measurements
  6
ByBlock
 62
    0
370
   -2
100
AcDbLine
 10
16219
 20
-1866.5
 11
16219
 21
-1745
  0
LINE
  5
10A
100
AcDbEntity
  8
measurements
  6
ByBlock
 62
    0
370
   -2
100
AcDbLine
 10
17619
 20
-1866.5
 11
17619
 21
-1745
  0
LINE
  5
10B
100
AcDbEntity
  8
measurements
  6
ByBlock
 62
    0
370
   -2
100
AcDbLine
 10
16219
 20
-1770
 11
17619
 21
-1770
  0
MTEXT
  5
10C
100
AcDbEntity
  8
measurements
  6
CONTINUOUS
 62
    0
370
   -2
100
AcDbMText
 10
16919
 20
-1732.5
 30
0
 40
50
 41
133.3333333333333
 71
    5
 72
    1
  1
1400
  7
standard
210
0
220
0
230
1
 50
0
 73
    2
 44
1
  0
SOLID
  5
10D
100
AcDbEntity
  8
measurements
  6
ByBlock
 62
    0
370
   -2
100
AcDbTrace
 10
16219
 20
-1770
 30
0
 11
16269
 21
-1761.674306844543
 31
0
 12
16269
 22
-1778.325693155457
 32
0
 13
16269
 23
-1778.325693155457
 33
0
  0
SOLID
  5
10E
100
AcDbEntity
  8
measurements
  6
ByBlock
 62
    0
370
   -2
100
AcDbTrace
 10
17619
 20
-1770
 30
0
 11
17569
 21
-1778.325693155457
 31
0
 12
17569
 22
-1761.674306844543
 32
0
 13
17569
 23
-1761.674306844543
 33
0
  0
ENDBLK
  5
8D
330
8B
100
AcDbEntity
  8
0
100
AcDbBlockEnd
  0
BLOCK
  5
8F
330
8E
100
AcDbEntity
  8
0
100
AcDbBlockBegin
  2
*D10
 70
    1
 10
0
 20
0
  3
*D10
  1

  0
LINE
  5
10F
100
AcDbEntity
  8
measurements
  6
ByBlock
 62
    0
370
   -2
100
AcDbLine
 10
19659.5
 20
-278
 11
19755
 21
-278
  0
LINE
  5
110
100
AcDbEntity
  8
measurements
  6
ByBlock
 62
    0
370
   -2
100
AcDbLine
 10
19659.5
 20
647
 11
19755
 21
647
  0
LINE
  5
111
100
AcDbEntity
  8
measurements
  6
ByBlock
 62
    0
370
   -2
100
AcDbLine
 10
19730
 20
-278
 11
19730
 21
647
  0
MTEXT
  5
112
100
AcDbEntity
  8
measurements
  6
CONTINUOUS
 62
    0
370
   -2
100
AcDbMText
 10
19692.5
 20
184.5
 30
0
 40
50
 41
100.0000000000062
 71
    5
 72
    1
  1
925
  7
standard
210
0
220
0
230
1
 50
90
 73
    2
 44
1
  0
SOLID
  5
113
100
AcDbEntity
  8
measurements
  6
ByBlock
 62
    0
370
   -2
100
AcDbTrace
 10
19730
 20
-278
 30
0
 11
19721.67430684454
 21
-228
 31
0
 12
19738.32569315546
 22
-228
 32
0
 13
19738.32569315546
 23
-228
 33
0
  0
SOLID
  5
114
100
AcDbEntity
  8
measurements
  6
ByBlock
 62
    0
370
   -2
100
AcDbTrace
 10
19730
 20
647
 30
0
 11
19738.32569315546
 21
597
 31
0
 12
19721.67430684454
 22
597
 32
0
 13
19721.67430684454
 23
597
 33
0
  0
ENDBLK
  5
90
330
8E
100
AcDbEntity
  8
0
100
AcDbBlockEnd
  0
BLOCK
  5
92
330
91
100
AcDbEntity
  8
0
100
AcDbBlockBegin
  2
*D11
 70
    1
 10
0
 20
0
  3
*D11
  1

  0
LINE
  5
115
100
AcDbEntity
  8
measurements
  6
ByBlock
 62
    0
370
   -2
100
AcDbLine
 10
18932.5
 20
-92.80000000000018
 11
18945
 21
-92.80000000000018
  0
LINE
  5
116
100
AcDbEntity
  8
measurements
  6
ByBlock
 62
    0
370
   -2
100
AcDbLine
 10
18932.5
 20
88.39999999999964
 11
18945
 21
88.39999999999964
  0
LINE
  5
117
100
AcDbEntity
  8
measurements
  6
ByBlock
 62
    0
370
   -2
100
AcDbLine
 10
18920
 20
-92.80000000000018
 11
18920
 21
88.39999999999964
  0
MTEXT
  5
118
100
AcDbEntity
  8
measurements
  6
CONTINUOUS
 62
    0
370
   -2
100
AcDbMText
 10
18882.5
 20
-2.200000000000268
 30
0
 40
50
 41
136.1111111111111
 71
    5
 72
    1
  1
181,2
  7
standard
210
0
220
0
230
1
 50
90
 73
    2
 44
1
  0
SOLID
  5
119
100
AcDbEntity
  8
measurements
  6
ByBlock
 62
    0
370
   -2
100
AcDbTrace
 10
18920
 20
-92.80000000000018
 30
0
 11
18911.67430684454
 21
-42.80000000000018
 31
0
 12
18928.32569315546
 22
-42.80000000000018
 32
0
 13
18928.32569315546
 23
-42.80000000000018
 33
0
  0
SOLID
  5
11A
100
AcDbEntity
  8
measurements
  6
ByBlock
 62
    0
370
   -2
100
AcDbTrace
 10
18920
 20
88.39999999999964
 30
0
 11
18928.32569315546
 21
38.39999999999964
 31
0
 12
18911.67430684454
 22
38.39999999999964
 32
0
 13
18911.67430684454
 23
38.39999999999964
 33
0
  0
ENDBLK
  5
93
330
91
100
AcDbEntity
  8
0
100
AcDbBlockEnd
  0
BLOCK
  5
95
330
94
100
AcDbEntity
  8
0
100
AcDbBlockBegin
  2
*D13
 70
    1
 10
0
 20
0
  3
*D13
  1

  0
LINE
  5
11B
100
AcDbEntity
  8
measurements
  6
ByBlock
 62
    0
370
   -2
100
AcDbLine
 10
17640
 20
77.5
 11
17640
 21
-535
  0
LINE
  5
11C
100
AcDbEntity
  8
measurements
  6
ByBlock
 62
    0
370
   -2
100
AcDbLine
 10
19650
 20
77.5
 11
19650
 21
-535
  0
LINE
  5
11D
100
AcDbEntity
  8
measurements
  6
ByBlock
 62
    0
370
   -2
100
AcDbLine
 10
17640
 20
-510
 11
19650
 21
-510
  0
MTEXT
  5
11E
100
AcDbEntity
  8
measurements
  6
CONTINUOUS
 62
    0
370
   -2
100
AcDbMText
 10
18645
 20
-472.5
 30
0
 40
50
 41
127.7777777777778
 71
    5
 72
    1
  1
2010
  7
standard
210
0
220
0
230
1
 50
0
 73
    2
 44
1
  0
SOLID
  5
11F
100
AcDbEntity
  8
measurements
  6
ByBlock
 62
    0
370
   -2
100
AcDbTrace
 10
17640
 20
-510
 30
0
 11
17690
 21
-501.6743068445432
 31
0
 12
17690
 22
-518.3256931554569
 32
0
 13
17690
 23
-518.3256931554569
 33
0
  0
SOLID
  5
120
100
AcDbEntity
  8
measurements
  6
ByBlock
 62
    0
370
   -2
100
AcDbTrace
 10
19650
 20
-510
 30
0
 11
19600
 21
-518.3256931554569
 31
0
 12
19600
 22
-501.6743068445432
 32
0
 13
19600
 23
-501.6743068445432
 33
0
  0
ENDBLK
  5
96
330
94
100
AcDbEntity
  8
0
100
AcDbBlockEnd
  0
BLOCK
  5
98
330
97
100
AcDbEntity
  8
0
100
AcDbBlockBegin
  2
*D21
 70
    1
 10
0
 20
0
  3
*D21
  1

  0
LINE
  5
121
100
AcDbEntity
  8
measurements
  6
ByBlock
 62
    0
370
   -2
100
AcDbLine
 10
17312.5
 20
-2269
 11
17175
 21
-2269
  0
LINE
  5
122
100
AcDbEntity
  8
measurements
  6
ByBlock
 62
    0
370
   -2
100
AcDbLine
 10
17312.5
 20
-2069
 11
17175
 21
-2069
  0
LINE
  5
123
100
AcDbEntity
  8
measurements
  6
ByBlock
 62
    0
370
   -2
100
AcDbLine
 10
17200
 20
-2269
 11
17200
 21
-2069
  0
MTEXT
  5
124
100
AcDbEntity
  8
measurements
  6
CONTINUOUS
 62
    0
370
   -2
100
AcDbMText
 10
17162.5
 20
-2169
 30
0
 40
50
 41
100
 71
    5
 72
    1
  1
200
  7
standard
210
0
220
0
230
1
 50
90
 73
    2
 44
1
  0
SOLID
  5
125
100
AcDbEntity
  8
measurements
  6
ByBlock
 62
    0
370
   -2
100
AcDbTrace
 10
17200
 20
-2269
 30
0
 11
17191.67430684454
 21
-2219
 31
0
 12
17208.32569315546
 22
-2219
 32
0
 13
17208.32569315546
 23
-2219
 33
0
  0
SOLID
  5
126
100
AcDbEntity
  8
measurements
  6
ByBlock
 62
    0
370
   -2
100
AcDbTrace
 10
17200
 20
-2069
 30
0
 11
17208.32569315546
 21
-2119
 31
0
 12
17191.67430684454
 22
-2119
 32
0
 13
17191.67430684454
 23
-2119
 33
0
  0
ENDBLK
  5
99
330
97
100
AcDbEntity
  8
0
100
AcDbBlockEnd
  0
BLOCK
  5
9B
330
9A
100
AcDbEntity
  8
0
100
AcDbBlockBegin
  2
*D22
 70
    1
 10
0
 20
0
  3
*D22
  1

  0
LINE
  5
127
100
AcDbEntity
  8
measurements
  6
ByBlock
 62
    0
370
   -2
100
AcDbLine
 10
16187.5
 20
-2069
 11
16075
 21
-2069
  0
LINE
  5
128
100
AcDbEntity
  8
measurements
  6
ByBlock
 62
    0
370
   -2
100
AcDbLine
 10
16187.5
 20
-1879
 11
16075
 21
-1879
  0
LINE
  5
129
100
AcDbEntity
  8
measurements
  6
ByBlock
 62
    0
370
   -2
100
AcDbLine
 10
16100
 20
-2069
 11
16100
 21
-1879
  0
MTEXT
  5
12A
100
AcDbEntity
  8
measurements
  6
CONTINUOUS
 62
    0
370
   -2
100
AcDbMText
 10
16062.5
 20
-1974
 30
0
 40
50
 41
88.88888888888889
 71
    5
 72
    1
  1
190
  7
standard
210
0
220
0
230
1
 50
90
 73
    2
 44
1
  0
SOLID
  5
12B
100
AcDbEntity
  8
measurements
  6
ByBlock
 62
    0
370
   -2
100
AcDbTrace
 10
16100
 20
-2069
 30
0
 11
16091.67430684454
 21
-2019
 31
0
 12
16108.32569315546
 22
-2019
 32
0
 13
16108.32569315546
 23
-2019
 33
0
  0
SOLID
  5
12C
100
AcDbEntity
  8
measurements
  6
ByBlock
 62
    0
370
   -2
100
AcDbTrace
 10
16100
 20
-1879
 30
0
 11
16108.32569315546
 21
-1929
 31
0
 12
16091.67430684454
 22
-1929
 32
0
 13
16091.67430684454
 23
-1929
 33
0
  0
ENDBLK
  5
9C
330
9A
100
AcDbEntity
  8
0
100
AcDbBlockEnd
  0
ENDSEC
  0
SECTION
  2
ENTITIES
  0
HATCH
  5
12D
100
AcDbEntity
  8
fill
  6
ByLayer
 62
  256
370
   -1
100
AcDbHatch
 10
0
 20
0
 30
0
210
0
220
0
230
1
  2
iso03w100
 70
    0
 71
    0
 91
    1
 92
    0
 93
    8
 72
    1
 10
17925
 20
-2088
 11
17325
 21
-2088
 72
    1
 10
17325
 20
-2088
 11
17325
 21
-2069
 72
    1
 10
17325
 20
-2069
 11
17925
 21
-2069
 72
    1
 10
17925
 20
-2069
 11
17925
 21
-2088
 72
    1
 10
17325
 20
-3000
 11
17925
 21
-3000
 72
    1
 10
17925
 20
-3000
 11
17925
 21
-2981
 72
    1
 10
17925
 20
-2981
 11
17325
 21
-2981
 72
    1
 10
17325
 20
-2981
 11
17325
 21
-3000
 97
    0
 75
    0
 76
    1
 52
1.570796326794897
 41
1
 77
    0
 78
    0
 98
    0
  0
LWPOLYLINE
  5
12E
100
AcDbEntity
  8
decor
  6
ByLayer
 62
  256
370
   -1
100
AcDbPolyline
 90
    4
 70
    1
 43
0
 10
1630
 20
-4740
 10
2370
 20
-4740
 10
2370
 20
-4300
 10
1630
 20
-4300
  0
LWPOLYLINE
  5
12F
100
AcDbEntity
  8
decor
  6
ByLayer
 62
  256
370
   -1
100
AcDbPolyline
 90
    4
 70
    1
 43
0
 10
1950
 20
-4800
 10
2050
 20
-4800
 10
2050
 20
-4795
 10
1950
 20
-4795
  0
LWPOLYLINE
  5
130
100
AcDbEntity
  8
decor
  6
ByLayer
 62
  256
370
   -1
100
AcDbPolyline
 90
    4
 70
    1
 43
0
 10
1985
 20
-4800
 10
2015
 20
-4800
 10
2015
 20
-4400
 10
1985
 20
-4400
  0
LWPOLYLINE
  5
131
100
AcDbEntity
  8
decor
  6
ByLayer
 62
  256
370
   -1
100
AcDbPolyline
 90
    4
 70
    1
 43
0
 10
2410
 20
-4200
 10
2450
 20
-4200
 10
2450
 20
-4000
 10
2410
 20
-4000
  0
LWPOLYLINE
  5
132
100
AcDbEntity
  8
decor
  6
ByLayer
 62
  256
370
   -1
100
AcDbPolyline
 90
    4
 70
    1
 43
0
 10
2450
 20
-4200
 10
2490
 20
-4200
 10
2490
 20
-4000
 10
2450
 20
-4000
  0
LWPOLYLINE
  5
133
100
AcDbEntity
  8
decor
  6
ByLayer
 62
  256
370
   -1
100
AcDbPolyline
 90
    4
 70
    1
 43
0
 10
2490
 20
-4200
 10
2530
 20
-4200
 10
2530
 20
-4000
 10
2490
 20
-4000
  0
LWPOLYLINE
  5
134
100
AcDbEntity
  8
decor
  6
ByLayer
 62
  256
370
   -1
100
AcDbPolyline
 90
    4
 70
    1
 43
0
 10
2530
 20
-4200
 10
2570
 20
-4200
 10
2570
 20
-4000
 10
2530
 20
-4000
  0
LWPOLYLINE
  5
135
100
AcDbEntity
  8
decor
  6
ByLayer
 62
  256
370
   -1
100
AcDbPolyline
 90
    4
 70
    1
 43
0
 10
2570
 20
-4200
 10
2610
 20
-4200
 10
2610
 20
-4000
 10
2570
 20
-4000
  0
LWPOLYLINE
  5
136
100
AcDbEntity
  8
decor
  6
ByLayer
 62
  256
370
   -1
100
AcDbPolyline
 90
    4
 70
    1
 43
0
 10
2610
 20
-4200
 10
2650
 20
-4200
 10
2650
 20
-4000
 10
2610
 20
-4000
  0
LWPOLYLINE
  5
137
100
AcDbEntity
  8
decor
  6
ByLayer
 62
  256
370
   -1
100
AcDbPolyline
 90
    4
 70
    1
 43
0
 10
2700
 20
-4200
 10
2738.769992402586
 20
-4190.156845571494
 10
2689.554220260055
 20
-3996.306883558564
 10
2650.784227857469
 20
-4006.15003798707
  0
LWPOLYLINE
  5
138
100
AcDbEntity
  8
decor
  6
ByLayer
 62
  256
370
   -1
100
AcDbPolyline
 90
    4
 70
    1
 43
0
 10
1970
 20
-4540
 10
2030
 20
-4540
 10
2030
 20
-4500
 10
1970
 20
-4500
  0
LWPOLYLINE
  5
139
100
AcDbEntity
  8
decor
  6
ByLayer
 62
  256
370
   -1
100
AcDbPolyline
 90
    4
 70
    1
 43
0
 10
2030
 20
-4510
 10
2340
 20
-4510
 10
2340
 20
-4530
 10
2030
 20
-4530
  0
LWPOLYLINE
  5
13A
100
AcDbEntity
  8
decor
  6
ByLayer
 62
  256
370
   -1
100
AcDbPolyline
 90
    4
 70
    1
 43
0
 10
1940
 20
-4580
 10
2060
 20
-4580
 10
2060
 20
-4460
 10
1940
 20
-4460
  0
LWPOLYLINE
  5
13B
100
AcDbEntity
  8
decor
  6
ByLayer
 62
  256
370
   -1
100
AcDbPolyline
 90
    4
 70
    1
 43
0
 10
1950
 20
-4820
 10
2050
 20
-4820
 10
2050
 20
-4830
 10
1950
 20
-4830
  0
LWPOLYLINE
  5
13C
100
AcDbEntity
  8
decor
  6
ByLayer
 62
  256
370
   -1
100
AcDbPolyline
 90
    4
 70
    1
 43
0
 10
9435
 20
-1200
 10
9475
 20
-1200
 10
9475
 20
-1000
 10
9435
 20
-1000
  0
LWPOLYLINE
  5
13D
100
AcDbEntity
  8
decor
  6
ByLayer
 62
  256
370
   -1
100
AcDbPolyline
 90
    4
 70
    1
 43
0
 10
9475
 20
-1200
 10
9515
 20
-1200
 10
9515
 20
-1000
 10
9475
 20
-1000
  0
LWPOLYLINE
  5
13E
100
AcDbEntity
  8
decor
  6
ByLayer
 62
  256
370
   -1
100
AcDbPolyline
 90
    4
 70
    1
 43
0
 10
9515
 20
-1200
 10
9555
 20
-1200
 10
9555
 20
-1000
 10
9515
 20
-1000
  0
LWPOLYLINE
  5
13F
100
AcDbEntity
  8
decor
  6
ByLayer
 62
  256
370
   -1
100
AcDbPolyline
 90
    4
 70
    1
 43
0
 10
9555
 20
-1200
 10
9595
 20
-1200
 10
9595
 20
-1000
 10
9555
 20
-1000
  0
LWPOLYLINE
  5
140
100
AcDbEntity
  8
decor
  6
ByLayer
 62
  256
370
   -1
100
AcDbPolyline
 90
    4
 70
    1
 43
0
 10
9595
 20
-1200
 10
9635
 20
-1200
 10
9635
 20
-1000
 10
9595
 20
-1000
  0
LWPOLYLINE
  5
141
100
AcDbEntity
  8
decor
  6
ByLayer
 62
  256
370
   -1
100
AcDbPolyline
 90
    4
 70
    1
 43
0
 10
9635
 20
-1200
 10
9675
 20
-1200
 10
9675
 20
-1000
 10
9635
 20
-1000
  0
LWPOLYLINE
  5
142
100
AcDbEntity
  8
decor
  6
ByLayer
 62
  256
370
   -1
100
AcDbPolyline
 90
    4
 70
    1
 43
0
 10
9725
 20
-1200
 10
9763.769992402586
 20
-1190.156845571494
 10
9714.554220260055
 20
-996.3068835585641
 10
9675.784227857468
 20
-1006.15003798707
  0
LINE
  5
143
100
AcDbEntity
  8
help
  6
ByLayer
 62
  256
370
   -1
100
AcDbLine
 10
8485
 20
-2981
 11
8485
 21
-2050
  0
LINE
  5
144
100
AcDbEntity
  8
help
  6
ByLayer
 62
  256
370
   -1
100
AcDbLine
 10
8487
 20
-2981
 11
8487
 21
-2050
  0
LINE
  5
145
100
AcDbEntity
  8
help
  6
ByLayer
 62
  256
370
   -1
100
AcDbLine
 10
8483
 20
-2981
 11
8483
 21
-2050
  0
LINE
  5
146
100
AcDbEntity
  8
help
  6
ByLayer
 62
  256
370
   -1
100
AcDbLine
 10
10050
 20
-2050
 11
8000
 21
-2050
  0
LINE
  5
147
100
AcDbEntity
  8
help
  6
ByLayer
 62
  256
370
   -1
100
AcDbLine
 10
9457
 20
-2981
 11
9457
 21
-2050
  0
LINE
  5
148
100
AcDbEntity
  8
help
  6
ByLayer
 62
  256
370
   -1
100
AcDbLine
 10
9459
 20
-2981
 11
9459
 21
-2050
  0
LINE
  5
149
100
AcDbEntity
  8
help
  6
ByLayer
 62
  256
370
   -1
100
AcDbLine
 10
9455
 20
-2981
 11
9455
 21
-2050
  0
LINE
  5
14A
100
AcDbEntity
  8
help
  6
ByLayer
 62
  256
370
   -1
100
AcDbLine
 10
8971
 20
-2981
 11
8971
 21
-2050
  0
LINE
  5
14B
100
AcDbEntity
  8
help
  6
ByLayer
 62
  256
370
   -1
100
AcDbLine
 10
8973
 20
-2981
 11
8973
 21
-2050
  0
LINE
  5
14C
100
AcDbEntity
  8
help
  6
ByLayer
 62
  256
370
   -1
100
AcDbLine
 10
8969
 20
-2981
 11
8969
 21
-2050
  0
LWPOLYLINE
  5
14D
100
AcDbEntity
  8
2
  6
ByLayer
 62
  256
370
   -1
100
AcDbPolyline
 90
    4
 70
    1
 43
0
 10
8001
 20
-2050
 10
8483
 20
-2050
 10
8483
 20
-2196
 10
8001
 20
-2196
  0
LWPOLYLINE
  5
14E
100
AcDbEntity
  8
2
  6
ByLayer
 62
  256
370
   -1
100
AcDbPolyline
 90
    4
 70
    1
 43
0
 10
8487
 20
-2050
 10
8969
 20
-2050
 10
8969
 20
-2196
 10
8487
 20
-2196
  0
LWPOLYLINE
  5
14F
100
AcDbEntity
  8
2
  6
ByLayer
 62
  256
370
   -1
100
AcDbPolyline
 90
    4
 70
    1
 43
0
 10
8973
 20
-2050
 10
9455
 20
-2050
 10
9455
 20
-2196
 10
8973
 20
-2196
  0
LWPOLYLINE
  5
150
100
AcDbEntity
  8
2
  6
ByLayer
 62
  256
370
   -1
100
AcDbPolyline
 90
    4
 70
    1
 43
0
 10
8001
 20
-2246
 10
8483
 20
-2246
 10
8483
 20
-2392
 10
8001
 20
-2392
  0
LWPOLYLINE
  5
151
100
AcDbEntity
  8
2
  6
ByLayer
 62
  256
370
   -1
100
AcDbPolyline
 90
    4
 70
    1
 43
0
 10
8487
 20
-2246
 10
8969
 20
-2246
 10
8969
 20
-2392
 10
8487
 20
-2392
  0
LWPOLYLINE
  5
152
100
AcDbEntity
  8
2
  6
ByLayer
 62
  256
370
   -1
100
AcDbPolyline
 90
    4
 70
    1
 43
0
 10
8973
 20
-2246
 10
9455
 20
-2246
 10
9455
 20
-2392
 10
8973
 20
-2392
  0
LWPOLYLINE
  5
153
100
AcDbEntity
  8
2
  6
ByLayer
 62
  256
370
   -1
100
AcDbPolyline
 90
    4
 70
    1
 43
0
 10
8001
 20
-2442
 10
8483
 20
-2442
 10
8483
 20
-2588
 10
8001
 20
-2588
  0
LWPOLYLINE
  5
154
100
AcDbEntity
  8
2
  6
ByLayer
 62
  256
370
   -1
100
AcDbPolyline
 90
    4
 70
    1
 43
0
 10
8487
 20
-2442
 10
8969
 20
-2442
 10
8969
 20
-2588
 10
8487
 20
-2588
  0
LWPOLYLINE
  5
155
100
AcDbEntity
  8
2
  6
ByLayer
 62
  256
370
   -1
100
AcDbPolyline
 90
    4
 70
    1
 43
0
 10
8973
 20
-2442
 10
9455
 20
-2442
 10
9455
 20
-2588
 10
8973
 20
-2588
  0
LWPOLYLINE
  5
156
100
AcDbEntity
  8
2
  6
ByLayer
 62
  256
370
   -1
100
AcDbPolyline
 90
    4
 70
    1
 43
0
 10
8001
 20
-2638
 10
8483
 20
-2638
 10
8483
 20
-2784
 10
8001
 20
-2784
  0
LWPOLYLINE
  5
157
100
AcDbEntity
  8
2
  6
ByLayer
 62
  256
370
   -1
100
AcDbPolyline
 90
    4
 70
    1
 43
0
 10
8487
 20
-2638
 10
8969
 20
-2638
 10
8969
 20
-2784
 10
8487
 20
-2784
  0
LWPOLYLINE
  5
158
100
AcDbEntity
  8
2
  6
ByLayer
 62
  256
370
   -1
100
AcDbPolyline
 90
    4
 70
    1
 43
0
 10
8973
 20
-2638
 10
9455
 20
-2638
 10
9455
 20
-2784
 10
8973
 20
-2784
  0
LWPOLYLINE
  5
159
100
AcDbEntity
  8
2
  6
ByLayer
 62
  256
370
   -1
100
AcDbPolyline
 90
    4
 70
    1
 43
0
 10
8001
 20
-2834
 10
8483
 20
-2834
 10
8483
 20
-2980
 10
8001
 20
-2980
  0
LWPOLYLINE
  5
15A
100
AcDbEntity
  8
2
  6
ByLayer
 62
  256
370
   -1
100
AcDbPolyline
 90
    4
 70
    1
 43
0
 10
8487
 20
-2834
 10
8969
 20
-2834
 10
8969
 20
-2980
 10
8487
 20
-2980
  0
LWPOLYLINE
  5
15B
100
AcDbEntity
  8
2
  6
ByLayer
 62
  256
370
   -1
100
AcDbPolyline
 90
    4
 70
    1
 43
0
 10
8973
 20
-2834
 10
9455
 20
-2834
 10
9455
 20
-2980
 10
8973
 20
-2980
  0
LINE
  5
15C
100
AcDbEntity
  8
help
  6
ByLayer
 62
  256
370
   -1
100
AcDbLine
 10
8001
 20
-2050
 11
14001
 21
-2050
  0
LINE
  5
15D
100
AcDbEntity
  8
help
  6
ByLayer
 62
  256
370
   -1
100
AcDbLine
 10
8045
 20
-1860
 11
14045
 21
-1860
  0
LINE
  5
15E
100
AcDbEntity
  8
help
  6
ByLayer
 62
  256
370
   -1
100
AcDbLine
 10
8040
 20
-3000
 11
14040
 21
-3000
  0
LINE
  5
15F
100
AcDbEntity
  8
help
  6
ByLayer
 62
  256
370
   -1
100
AcDbLine
 10
11000
 20
-3000
 11
11000
 21
3000
  0
LWPOLYLINE
  5
160
100
AcDbEntity
  8
decor
  6
ByLayer
 62
  256
370
   -1
100
AcDbPolyline
 90
    4
 70
    1
 43
0
 10
8655
 20
-1800
 10
9395
 20
-1800
 10
9395
 20
-1360
 10
8655
 20
-1360
  0
LWPOLYLINE
  5
161
100
AcDbEntity
  8
decor
  6
ByLayer
 62
  256
370
   -1
100
AcDbPolyline
 90
    4
 70
    1
 43
0
 10
8975
 20
-1860
 10
9075
 20
-1860
 10
9075
 20
-1855
 10
8975
 20
-1855
  0
LWPOLYLINE
  5
162
100
AcDbEntity
  8
decor
  6
ByLayer
 62
  256
370
   -1
100
AcDbPolyline
 90
    4
 70
    1
 43
0
 10
8995
 20
-1600
 10
9055
 20
-1600
 10
9055
 20
-1560
 10
8995
 20
-1560
  0
LWPOLYLINE
  5
163
100
AcDbEntity
  8
decor
  6
ByLayer
 62
  256
370
   -1
100
AcDbPolyline
 90
    4
 70
    1
 43
0
 10
9055
 20
-1570
 10
9365
 20
-1570
 10
9365
 20
-1590
 10
9055
 20
-1590
  0
LWPOLYLINE
  5
164
100
AcDbEntity
  8
decor
  6
ByLayer
 62
  256
370
   -1
100
AcDbPolyline
 90
    4
 70
    1
 43
0
 10
8975
 20
-1880
 10
9075
 20
-1880
 10
9075
 20
-1890
 10
8975
 20
-1890
  0
LWPOLYLINE
  5
165
100
AcDbEntity
  8
decor
  6
ByLayer
 62
  256
370
   -1
100
AcDbPolyline
 90
    4
 70
    1
 43
0
 10
9010
 20
-1855
 10
9040
 20
-1855
 10
9040
 20
-1600
 10
9010
 20
-1600
  0
LWPOLYLINE
  5
166
100
AcDbEntity
  8
decor
  6
ByLayer
 62
  256
370
   -1
100
AcDbPolyline
 90
    4
 70
    1
 43
0
 10
9010
 20
-1560
 10
9040
 20
-1560
 10
9040
 20
-1460
 10
9010
 20
-1460
  0
LINE
  5
167
100
AcDbEntity
  8
decor
  6
ByLayer
 62
  256
370
   -1
100
AcDbLine
 10
9010
 20
-1640
 11
8965
 21
-1640
  0
LINE
  5
168
100
AcDbEntity
  8
decor
  6
ByLayer
 62
  256
370
   -1
100
AcDbLine
 10
8965
 20
-1640
 11
8965
 21
-1520
  0
LINE
  5
169
100
AcDbEntity
  8
decor
  6
ByLayer
 62
  256
370
   -1
100
AcDbLine
 10
8965
 20
-1520
 11
9010
 21
-1520
  0
LINE
  5
16A
100
AcDbEntity
  8
decor
  6
ByLayer
 62
  256
370
   -1
100
AcDbLine
 10
9040
 20
-1520
 11
9085
 21
-1520
  0
LINE
  5
16B
100
AcDbEntity
  8
decor
  6
ByLayer
 62
  256
370
   -1
100
AcDbLine
 10
9085
 20
-1520
 11
9085
 21
-1570
  0
LINE
  5
16C
100
AcDbEntity
  8
decor
  6
ByLayer
 62
  256
370
   -1
100
AcDbLine
 10
9085
 20
-1590
 11
9085
 21
-1640
  0
LINE
  5
16D
100
AcDbEntity
  8
decor
  6
ByLayer
 62
  256
370
   -1
100
AcDbLine
 10
9085
 20
-1640
 11
9040
 21
-1640
  0
LINE
  5
16E
100
AcDbEntity
  8
help
  6
ByLayer
 62
  256
370
   -1
100
AcDbLine
 10
10050
 20
-1400
 11
16050
 21
-1400
  0
LINE
  5
16F
100
AcDbEntity
  8
help
  6
ByLayer
 62
  256
370
   -1
100
AcDbLine
 10
10025
 20
-1500
 11
16025
 21
-1500
  0
LINE
  5
170
100
AcDbEntity
  8
help
  6
ByLayer
 62
  256
370
   -1
100
AcDbLine
 10
10025
 20
-1200
 11
16025
 21
-1200
  0
LINE
  5
171
100
AcDbEntity
  8
help
  6
ByLayer
 62
  256
370
   -1
100
AcDbLine
 10
10025
 20
-900
 11
16025
 21
-900
  0
LINE
  5
172
100
AcDbEntity
  8
help
  6
ByLayer
 62
  256
370
   -1
100
AcDbLine
 10
10010
 20
-2981
 11
16010
 21
-2981
  0
LINE
  5
173
100
AcDbEntity
  8
help
  6
ByLayer
 62
  256
370
   -1
100
AcDbLine
 10
12744
 20
-2053
 11
6744
 21
-2053
  0
LINE
  5
174
100
AcDbEntity
  8
help
  6
ByLayer
 62
  256
370
   -1
100
AcDbLine
 10
12744
 20
-2978
 11
6744
 21
-2978
  0
LINE
  5
175
100
AcDbEntity
  8
help
  6
ByLayer
 62
  256
370
   -1
100
AcDbLine
 10
8000
 20
-2050
 11
10050
 21
-2050
  0
LINE
  5
176
100
AcDbEntity
  8
help
  6
ByLayer
 62
  256
370
   -1
100
AcDbLine
 10
8000
 20
-2236.2
 11
10050
 21
-2236.2
  0
LINE
  5
177
100
AcDbEntity
  8
help
  6
ByLayer
 62
  256
370
   -1
100
AcDbLine
 10
8000
 20
-2422.4
 11
10050
 21
-2422.4
  0
LINE
  5
178
100
AcDbEntity
  8
help
  6
ByLayer
 62
  256
370
   -1
100
AcDbLine
 10
8000
 20
-2608.599999999999
 11
10050
 21
-2608.599999999999
  0
LINE
  5
179
100
AcDbEntity
  8
help
  6
ByLayer
 62
  256
370
   -1
100
AcDbLine
 10
8000
 20
-2794.799999999999
 11
10050
 21
-2794.799999999999
  0
LINE
  5
17A
100
AcDbEntity
  8
help
  6
ByLayer
 62
  256
370
   -1
100
AcDbLine
 10
8000
 20
-2980.999999999999
 11
10050
 21
-2980.999999999999
  0
LINE
  5
17B
100
AcDbEntity
  8
help
  6
ByLayer
 62
  256
370
   -1
100
AcDbLine
 10
8000
 20
-2234.2
 11
10050
 21
-2234.2
  0
LINE
  5
17C
100
AcDbEntity
  8
help
  6
ByLayer
 62
  256
370
   -1
100
AcDbLine
 10
8000
 20
-2420.4
 11
10050
 21
-2420.4
  0
LINE
  5
17D
100
AcDbEntity
  8
help
  6
ByLayer
 62
  256
370
   -1
100
AcDbLine
 10
8000
 20
-2606.599999999999
 11
10050
 21
-2606.599999999999
  0
LINE
  5
17E
100
AcDbEntity
  8
help
  6
ByLayer
 62
  256
370
   -1
100
AcDbLine
 10
8000
 20
-2792.799999999999
 11
10050
 21
-2792.799999999999
  0
LINE
  5
17F
100
AcDbEntity
  8
help
  6
ByLayer
 62
  256
370
   -1
100
AcDbLine
 10
8000
 20
-2238.2
 11
10050
 21
-2238.2
  0
LINE
  5
180
100
AcDbEntity
  8
help
  6
ByLayer
 62
  256
370
   -1
100
AcDbLine
 10
8000
 20
-2424.4
 11
10050
 21
-2424.4
  0
LINE
  5
181
100
AcDbEntity
  8
help
  6
ByLayer
 62
  256
370
   -1
100
AcDbLine
 10
8000
 20
-2610.599999999999
 11
10050
 21
-2610.599999999999
  0
LINE
  5
182
100
AcDbEntity
  8
help
  6
ByLayer
 62
  256
370
   -1
100
AcDbLine
 10
8000
 20
-2796.799999999999
 11
10050
 21
-2796.799999999999
  0
LWPOLYLINE
  5
183
100
AcDbEntity
  8
help
  6
ByLayer
 62
  256
370
   -1
100
AcDbPolyline
 90
    4
 70
    1
 43
0
 10
8003
 20
-2053
 10
8483
 20
-2053
 10
8483
 20
-2978
 10
8003
 20
-2978
  0
LWPOLYLINE
  5
184
100
AcDbEntity
  8
help
  6
ByLayer
 62
  256
370
   -1
100
AcDbPolyline
 90
    4
 70
    1
 43
0
 10
8487
 20
-2978
 10
9455
 20
-2978
 10
9455
 20
-2053
 10
8487
 20
-2053
  0
LINE
  5
185
100
AcDbEntity
  8
help
  6
ByLayer
 62
  256
370
   -1
100
AcDbLine
 10
15725
 20
-2981
 11
13675
 21
-2981
  0
LWPOLYLINE
  5
186
100
AcDbEntity
  8
0
  6
ByLayer
 62
  256
370
   -1
100
AcDbPolyline
 90
    4
 70
    1
 43
0
 10
19900
 20
-3000
 10
20500
 20
-3000
 10
20500
 20
-2069
 10
19900
 20
-2069
  0
DIMENSION
  5
187
100
AcDbEntity
  8
measurements
  6
ByLayer
 62
  256
370
   -1
100
AcDbDimension
  2
*D1
 10
20475
 20
-3419
 30
0
 11
19625
 21
-3381.5
 31
0
 70
   33
 71
    5
 72
    0
  3
Standard
 53
0
210
0
220
0
230
1
100
AcDbAlignedDimension
 13
18775
 23
-3019
 33
0
 14
20475
 24
-3019
 34
0
  0
DIMENSION
  5
188
100
AcDbEntity
  8
measurements
  6
ByLayer
 62
  256
370
   -1
100
AcDbDimension
  2
*D2
 10
20500
 20
-3219
 30
0
 11
20200
 21
-3181.5
 31
0
 70
   33
 71
    5
 72
    0
  3
Standard
 53
0
210
0
220
0
230
1
100
AcDbAlignedDimension
 13
19900
 23
-3000
 33
0
 14
20500
 24
-3000
 34
0
  0
DIMENSION
  5
189
100
AcDbEntity
  8
measurements
  6
ByLayer
 62
  256
370
   -1
100
AcDbDimension
  2
*D3
 10
18775
 20
-3219
 30
0
 11
19337.5
 21
-3181.5
 31
0
 70
   33
 71
    5
 72
    0
  3
Standard
 53
0
210
0
220
0
230
1
100
AcDbAlignedDimension
 13
19900
 23
-3000
 33
0
 14
18775
 24
-3000
 34
0
  0
DIMENSION
  5
18A
100
AcDbEntity
  8
measurements
  6
ByLayer
 62
  256
370
   -1
100
AcDbDimension
  2
*D4
 10
18675
 20
-1419
 30
0
 11
18637.5
 21
-1649
 31
0
 70
   33
 71
    5
 72
    0
  3
Standard
 53
0
210
0
220
0
230
1
100
AcDbAlignedDimension
 13
18775
 23
-1879
 33
0
 14
18775
 24
-1419
 34
0
  0
DIMENSION
  5
18B
100
AcDbEntity
  8
measurements
  6
ByLayer
 62
  256
370
   -1
100
AcDbDimension
  2
*D5
 10
20635
 20
-2069
 30
0
 11
20597.5
 21
-2534.5
 31
0
 70
   33
 71
    5
 72
    0
  3
Standard
 53
0
210
0
220
0
230
1
100
AcDbAlignedDimension
 13
20500
 23
-3000
 33
0
 14
20500
 24
-2069
 34
0
  0
LWPOLYLINE
  5
18C
100
AcDbEntity
  8
0
  6
ByLayer
 62
  256
370
   -1
100
AcDbPolyline
 90
    4
 70
    1
 43
0
 10
20213
 20
-769
 10
20233
 20
-769
 10
20233
 20
-2069
 10
20213
 20
-2069
  0
LWPOLYLINE
  5
18D
100
AcDbEntity
  8
0
  6
ByLayer
 62
  256
370
   -1
100
AcDbPolyline
 90
    4
 70
    1
 43
0
 10
20473
 20
-769
 10
20493
 20
-769
 10
20493
 20
-2069
 10
20473
 20
-2069
  0
LWPOLYLINE
  5
18E
100
AcDbEntity
  8
0
  6
ByLayer
 62
  256
370
   -1
100
AcDbPolyline
 90
    4
 70
    1
 43
0
 10
20233
 20
-1879
 10
20473
 20
-1879
 10
20473
 20
-1899
 10
20233
 20
-1899
  0
LWPOLYLINE
  5
18F
100
AcDbEntity
  8
0
  6
ByLayer
 62
  256
370
   -1
100
AcDbPolyline
 90
    4
 70
    1
 43
0
 10
20233
 20
-1899
 10
20473
 20
-1899
 10
20473
 20
-1919
 10
20233
 20
-1919
  0
LWPOLYLINE
  5
190
100
AcDbEntity
  8
0
  6
ByLayer
 62
  256
370
   -1
100
AcDbPolyline
 90
    4
 70
    1
 43
0
 10
20233
 20
-1519
 10
20473
 20
-1519
 10
20473
 20
-1539
 10
20233
 20
-1539
  0
LWPOLYLINE
  5
191
100
AcDbEntity
  8
0
  6
ByLayer
 62
  256
370
   -1
100
AcDbPolyline
 90
    4
 70
    1
 43
0
 10
20233
 20
-1539
 10
20473
 20
-1539
 10
20473
 20
-1559
 10
20233
 20
-1559
  0
LWPOLYLINE
  5
192
100
AcDbEntity
  8
0
  6
ByLayer
 62
  256
370
   -1
100
AcDbPolyline
 90
    4
 70
    1
 43
0
 10
20233
 20
-1219
 10
20473
 20
-1219
 10
20473
 20
-1239
 10
20233
 20
-1239
  0
LWPOLYLINE
  5
193
100
AcDbEntity
  8
0
  6
ByLayer
 62
  256
370
   -1
100
AcDbPolyline
 90
    4
 70
    1
 43
0
 10
20233
 20
-1239
 10
20473
 20
-1239
 10
20473
 20
-1259
 10
20233
 20
-1259
  0
LWPOLYLINE
  5
194
100
AcDbEntity
  8
0
  6
ByLayer
 62
  256
370
   -1
100
AcDbPolyline
 90
    4
 70
    1
 43
0
 10
20233
 20
-919
 10
20473
 20
-919
 10
20473
 20
-939
 10
20233
 20
-939
  0
LWPOLYLINE
  5
195
100
AcDbEntity
  8
0
  6
ByLayer
 62
  256
370
   -1
100
AcDbPolyline
 90
    4
 70
    1
 43
0
 10
20233
 20
-939
 10
20473
 20
-939
 10
20473
 20
-959
 10
20233
 20
-959
  0
LWPOLYLINE
  5
196
100
AcDbEntity
  8
0
  6
ByLayer
 62
  256
370
   -1
100
AcDbPolyline
 90
    4
 70
    1
 43
0
 10
20213
 20
-2069
 10
20194
 20
-2069
 10
20194
 20
-1879
 10
20213
 20
-1879
  0
LWPOLYLINE
  5
197
100
AcDbEntity
  8
0
  6
ByLayer
 62
  256
370
   -1
100
AcDbPolyline
 90
    4
 70
    1
 43
0
 10
18775
 20
-3000
 10
18975
 20
-3000
 10
18975
 20
-2069
 10
18775
 20
-2069
  0
LWPOLYLINE
  5
198
100
AcDbEntity
  8
0
  6
ByLayer
 62
  256
370
   -1
100
AcDbPolyline
 90
    4
 70
    1
 43
0
 10
18975
 20
-2069
 10
19900
 20
-2069
 10
19900
 20
-2269
 10
18975
 20
-2269
  0
LWPOLYLINE
  5
199
100
AcDbEntity
  8
0
  6
ByLayer
 62
  256
370
   -1
100
AcDbPolyline
 90
    9
 70
    0
 43
0
 10
18794
 20
-2069
 10
18794
 20
-1879
 10
18775
 20
-1879
 10
18775
 20
-1419
 10
20213
 20
-1419
 10
20213
 20
-1879
 10
20194
 20
-1879
 10
20194
 20
-2069
 10
18795
 20
-2069
  0
LINE
  5
19A
100
AcDbEntity
  8
0
  6
ByLayer
 62
  256
370
   -1
100
AcDbLine
 10
18795
 20
-2069
 11
18794
 21
-2069
  0
LWPOLYLINE
  5
19B
100
AcDbEntity
  8
back
  6
ByLayer
 62
  256
370
   -1
100
AcDbPolyline
 90
   10
 70
    0
 43
0
 10
18794
 20
-1879
 10
18794
 20
-2069
 10
18975
 20
-2069
 10
18975
 20
-2269
 10
19900
 20
-2269
 10
19900
 20
-2069
 10
20194
 20
-2069
 10
20194
 20
-1879
 10
20213
 20
-1879
 10
18794
 20
-1879
  0
DIMENSION
  5
19C
100
AcDbEntity
  8
measurements
  6
ByLayer
 62
  256
370
   -1
100
AcDbDimension
  2
*D6
 10
18675
 20
-1879
 30
0
 11
18637.5
 21
-1974
 31
0
 70
   33
 71
    5
 72
    0
  3
Standard
 53
0
210
0
220
0
230
1
100
AcDbAlignedDimension
 13
18775
 23
-2069
 33
0
 14
18775
 24
-1879
 34
0
  0
LWPOLYLINE
  5
19D
100
AcDbEntity
  8
back
  6
ByLayer
 62
  256
370
   -1
100
AcDbPolyline
 90
    4
 70
    1
 43
0
 10
19900
 20
-3000
 10
20500
 20
-3000
 10
20500
 20
-2981
 10
19900
 20
-2981
  0
LWPOLYLINE
  5
19E
100
AcDbEntity
  8
back
  6
ByLayer
 62
  256
370
   -1
100
AcDbPolyline
 90
    4
 70
    1
 43
0
 10
19900
 20
-2069
 10
20500
 20
-2069
 10
20500
 20
-2088
 10
19900
 20
-2088
  0
LWPOLYLINE
  5
19F
100
AcDbEntity
  8
back
  6
ByLayer
 62
  256
370
   -1
100
AcDbPolyline
 90
    4
 70
    1
 43
0
 10
19900
 20
-2088
 10
19919
 20
-2088
 10
19919
 20
-2981
 10
19900
 20
-2981
  0
LWPOLYLINE
  5
1A0
100
AcDbEntity
  8
back
  6
ByLayer
 62
  256
370
   -1
100
AcDbPolyline
 90
    4
 70
    1
 43
0
 10
18775
 20
-2069
 10
18794
 20
-2069
 10
18794
 20
-1879
 10
18775
 20
-1879
  0
LWPOLYLINE
  5
1A1
100
AcDbEntity
  8
back
  6
ByLayer
 62
  256
370
   -1
100
AcDbPolyline
 90
    4
 70
    1
 43
0
 10
18794
 20
-2069
 10
20194
 20
-2069
 10
20194
 20
-2049
 10
18794
 20
-2049
  0
LWPOLYLINE
  5
1A2
100
AcDbEntity
  8
back
  6
ByLayer
 62
  256
370
   -1
100
AcDbPolyline
 90
    4
 70
    1
 43
0
 10
18775
 20
-3000
 10
18794
 20
-3000
 10
18794
 20
-2069
 10
18775
 20
-2069
  0
LWPOLYLINE
  5
1A3
100
AcDbEntity
  8
back
  6
ByLayer
 62
  256
370
   -1
100
AcDbPolyline
 90
    4
 70
    1
 43
0
 10
18975
 20
-2069
 10
18956
 20
-2069
 10
18956
 20
-3000
 10
18975
 20
-3000
  0
LWPOLYLINE
  5
1A4
100
AcDbEntity
  8
back
  6
ByLayer
 62
  256
370
   -1
100
AcDbPolyline
 90
    4
 70
    1
 43
0
 10
18794
 20
-3000
 10
18956
 20
-3000
 10
18956
 20
-2981
 10
18794
 20
-2981
  0
LWPOLYLINE
  5
1A5
100
AcDbEntity
  8
back
  6
ByLayer
 62
  256
370
   -1
100
AcDbPolyline
 90
    4
 70
    1
 43
0
 10
18794
 20
-2069
 10
18956
 20
-2069
 10
18956
 20
-2088
 10
18794
 20
-2088
  0
LWPOLYLINE
  5
1A6
100
AcDbEntity
  8
back
  6
ByLayer
 62
  256
370
   -1
100
AcDbPolyline
 90
    4
 70
    1
 43
0
 10
18794
 20
-2626
 10
18956
 20
-2626
 10
18956
 20
-2607
 10
18794
 20
-2607
  0
LWPOLYLINE
  5
1A7
100
AcDbEntity
  8
back
  6
ByLayer
 62
  256
370
   -1
100
AcDbPolyline
 90
    4
 70
    1
 43
0
 10
18975
 20
-3000
 10
19900
 20
-3000
 10
19900
 20
-2981
 10
18975
 20
-2981
  0
LWPOLYLINE
  5
1A8
100
AcDbEntity
  8
0
  6
ByLayer
 62
  256
370
   -1
100
AcDbPolyline
 90
    8
 70
    0
 43
0
 10
19900
 20
-3000
 10
19900
 20
-1880
 10
19900
 20
-1879
 10
20213
 20
-1879
 10
20213
 20
-2069
 10
20500
 20
-2069
 10
20500
 20
-3000
 10
19900
 20
-3000
  0
LWPOLYLINE
  5
1A9
100
AcDbEntity
  8
0
  6
ByLayer
 62
  256
370
   -1
100
AcDbPolyline
 90
    4
 70
    1
 43
0
 10
18778
 20
-2997
 10
18973
 20
-2997
 10
18973
 20
-1879
 10
18778
 20
-1879
  0
LWPOLYLINE
  5
1AA
100
AcDbEntity
  8
0
  6
ByLayer
 62
  256
370
   -1
100
AcDbPolyline
 90
    4
 70
    1
 43
0
 10
18977
 20
-1879
 10
19435
 20
-1879
 10
19435
 20
-2997
 10
18977
 20
-2997
  0
LWPOLYLINE
  5
1AB
100
AcDbEntity
  8
0
  6
ByLayer
 62
  256
370
   -1
100
AcDbPolyline
 90
    4
 70
    1
 43
0
 10
19439
 20
-1879
 10
19897
 20
-1879
 10
19897
 20
-2997
 10
19439
 20
-2997
  0
MTEXT
  5
1AC
100
AcDbEntity
  8
measurements
  6
ByLayer
 62
  256
370
   -1
100
AcDbMText
 10
19200
 20
-2600
 30
0
 40
100
 41
277.7777777777778
 71
    8
 72
    1
  1
Tuer\P
  7
iso
210
0
220
0
230
1
 50
0
 73
    2
 44
1
  0
MTEXT
  5
1AD
100
AcDbEntity
  8
measurements
  6
ByLayer
 62
  256
370
   -1
100
AcDbMText
 10
19700
 20
-2600
 30
0
 40
100
 41
277.7777777777778
 71
    8
 72
    1
  1
Tuer\P
  7
iso
210
0
220
0
230
1
 50
0
 73
    2
 44
1
  0
MTEXT
  5
1AE
100
AcDbEntity
  8
measurements
  6
ByLayer
 62
  256
370
   -1
100
AcDbMText
 10
19090
 20
-2410
 30
0
 40
100
 41
277.7777777777778
 71
    8
 72
    1
  1
Tuer\P
  7
iso
210
0
220
0
230
1
 50
90
 73
    2
 44
1
  0
MTEXT
  5
1AF
100
AcDbEntity
  8
measurements
  6
ByLayer
 62
  256
370
   -1
100
AcDbMText
 10
20200
 20
-2800
 30
0
 40
100
 41
411.1111111111157
 71
    8
 72
    1
  1
Blende\P\P
  7
iso
210
0
220
0
230
1
 50
0
 73
    2
 44
1
  0
LINE
  5
1B0
100
AcDbEntity
  8
0
  6
ByLayer
 62
  256
370
   -1
100
AcDbLine
 10
17600
 20
650
 11
17600
 21
-300
  0
LINE
  5
1B1
100
AcDbEntity
  8
0
  6
ByLayer
 62
  256
370
   -1
100
AcDbLine
 10
19650
 20
650
 11
19650
 21
-300
  0
LWPOLYLINE
  5
1B2
100
AcDbEntity
  8
0
  6
ByLayer
 62
  256
370
   -1
100
AcDbPolyline
 90
    4
 70
    1
 43
0
 10
17640
 20
-300
 10
19610
 20
-300
 10
19610
 20
-281
 10
17640
 20
-281
  0
LINE
  5
1B3
100
AcDbEntity
  8
0
  6
ByLayer
 62
  256
370
   -1
100
AcDbLine
 10
17645
 20
840
 11
18215
 21
840
  0
LINE
  5
1B4
100
AcDbEntity
  8
0
  6
ByLayer
 62
  256
370
   -1
100
AcDbLine
 10
18235
 20
840
 11
19015
 21
840
  0
LINE
  5
1B5
100
AcDbEntity
  8
0
  6
ByLayer
 62
  256
370
   -1
100
AcDbLine
 10
19035
 20
840
 11
19605
 21
840
  0
LWPOLYLINE
  5
1B6
100
AcDbEntity
  8
back
  6
ByLayer
 62
  256
370
   -1
100
AcDbPolyline
 90
    4
 70
    1
 43
0
 10
17625
 20
1480
 10
19625
 20
1480
 10
19625
 20
1500
 10
17625
 20
1500
  0
LWPOLYLINE
  5
1B7
100
AcDbEntity
  8
back
  6
ByLayer
 62
  256
370
   -1
100
AcDbPolyline
 90
    4
 70
    1
 43
0
 10
17625
 20
1780
 10
19625
 20
1780
 10
19625
 20
1800
 10
17625
 20
1800
  0
LWPOLYLINE
  5
1B8
100
AcDbEntity
  8
back
  6
ByLayer
 62
  256
370
   -1
100
AcDbPolyline
 90
    4
 70
    1
 43
0
 10
17625
 20
1180
 10
18235
 20
1180
 10
18235
 20
1200
 10
17625
 20
1200
  0
LWPOLYLINE
  5
1B9
100
AcDbEntity
  8
back
  6
ByLayer
 62
  256
370
   -1
100
AcDbPolyline
 90
    4
 70
    1
 43
0
 10
19015
 20
1180
 10
19625
 20
1180
 10
19625
 20
1200
 10
19015
 20
1200
  0
LWPOLYLINE
  5
1BA
100
AcDbEntity
  8
0
  6
ByLayer
 62
  256
370
   -1
100
AcDbPolyline
 90
    4
 70
    1
 43
0
 10
17645
 20
1780
 10
18215
 20
1780
 10
18215
 20
1800
 10
17645
 20
1800
  0
LWPOLYLINE
  5
1BB
100
AcDbEntity
  8
0
  6
ByLayer
 62
  256
370
   -1
100
AcDbPolyline
 90
    4
 70
    1
 43
0
 10
18235
 20
1780
 10
19015
 20
1780
 10
19015
 20
1800
 10
18235
 20
1800
  0
LWPOLYLINE
  5
1BC
100
AcDbEntity
  8
0
  6
ByLayer
 62
  256
370
   -1
100
AcDbPolyline
 90
    4
 70
    1
 43
0
 10
19035
 20
1780
 10
19605
 20
1780
 10
19605
 20
1800
 10
19035
 20
1800
  0
LWPOLYLINE
  5
1BD
100
AcDbEntity
  8
0
  6
ByLayer
 62
  256
370
   -1
100
AcDbPolyline
 90
    4
 70
    1
 43
0
 10
17645
 20
1480
 10
18215
 20
1480
 10
18215
 20
1500
 10
17645
 20
1500
  0
LWPOLYLINE
  5
1BE
100
AcDbEntity
  8
0
  6
ByLayer
 62
  256
370
   -1
100
AcDbPolyline
 90
    4
 70
    1
 43
0
 10
18235
 20
1480
 10
19015
 20
1480
 10
19015
 20
1500
 10
18235
 20
1500
  0
LWPOLYLINE
  5
1BF
100
AcDbEntity
  8
0
  6
ByLayer
 62
  256
370
   -1
100
AcDbPolyline
 90
    4
 70
    1
 43
0
 10
19035
 20
1480
 10
19605
 20
1480
 10
19605
 20
1500
 10
19035
 20
1500
  0
LWPOLYLINE
  5
1C0
100
AcDbEntity
  8
0
  6
ByLayer
 62
  256
370
   -1
100
AcDbPolyline
 90
    4
 70
    1
 43
0
 10
17645
 20
1180
 10
18215
 20
1180
 10
18215
 20
1200
 10
17645
 20
1200
  0
LWPOLYLINE
  5
1C1
100
AcDbEntity
  8
0
  6
ByLayer
 62
  256
370
   -1
100
AcDbPolyline
 90
    4
 70
    1
 43
0
 10
19035
 20
1180
 10
19605
 20
1180
 10
19605
 20
1200
 10
19035
 20
1200
  0
LWPOLYLINE
  5
1C2
100
AcDbEntity
  8
0
  6
ByLayer
 62
  256
370
   -1
100
AcDbPolyline
 90
    4
 70
    1
 43
0
 10
17645
 20
820
 10
18215
 20
820
 10
18215
 20
840
 10
17645
 20
840
  0
LWPOLYLINE
  5
1C3
100
AcDbEntity
  8
0
  6
ByLayer
 62
  256
370
   -1
100
AcDbPolyline
 90
    4
 70
    1
 43
0
 10
18235
 20
820
 10
19015
 20
820
 10
19015
 20
840
 10
18235
 20
840
  0
LWPOLYLINE
  5
1C4
100
AcDbEntity
  8
0
  6
ByLayer
 62
  256
370
   -1
100
AcDbPolyline
 90
    4
 70
    1
 43
0
 10
19035
 20
820
 10
19605
 20
820
 10
19605
 20
840
 10
19035
 20
840
  0
LWPOLYLINE
  5
1C5
100
AcDbEntity
  8
0
  6
ByLayer
 62
  256
370
   -1
100
AcDbPolyline
 90
    4
 70
    1
 43
0
 10
19059
 20
647
 10
19647
 20
647
 10
19647
 20
-278
 10
19059
 20
-278
  0
LWPOLYLINE
  5
1C6
100
AcDbEntity
  8
0
  6
ByLayer
 62
  256
370
   -1
100
AcDbPolyline
 90
    4
 70
    1
 43
0
 10
17600
 20
650
 10
19650
 20
650
 10
19650
 20
-281
 10
17600
 20
-281
  0
LWPOLYLINE
  5
1C7
100
AcDbEntity
  8
back
  6
ByLayer
 62
  256
370
   -1
100
AcDbPolyline
 90
    4
 70
    1
 43
0
 10
19650
 20
-281
 10
19631
 20
-281
 10
19631
 20
650
 10
19650
 20
650
  0
LWPOLYLINE
  5
1C8
100
AcDbEntity
  8
back
  6
ByLayer
 62
  256
370
   -1
100
AcDbPolyline
 90
    4
 70
    1
 43
0
 10
17600
 20
-281
 10
17619
 20
-281
 10
17619
 20
650
 10
17600
 20
650
  0
LWPOLYLINE
  5
1C9
100
AcDbEntity
  8
back
  6
ByLayer
 62
  256
370
   -1
100
AcDbPolyline
 90
    4
 70
    1
 43
0
 10
17619
 20
650
 10
19631
 20
650
 10
19631
 20
631
 10
17619
 20
631
  0
LWPOLYLINE
  5
1CA
100
AcDbEntity
  8
back
  6
ByLayer
 62
  256
370
   -1
100
AcDbPolyline
 90
    4
 70
    1
 43
0
 10
17619
 20
-281
 10
19631
 20
-281
 10
19631
 20
-262
 10
17619
 20
-262
  0
LWPOLYLINE
  5
1CB
100
AcDbEntity
  8
back
  6
ByLayer
 62
  256
370
   -1
100
AcDbPolyline
 90
    4
 70
    1
 43
0
 10
18075.5
 20
-262
 10
18094.5
 20
-262
 10
18094.5
 20
631
 10
18075.5
 20
631
  0
LWPOLYLINE
  5
1CC
100
AcDbEntity
  8
back
  6
ByLayer
 62
  256
370
   -1
100
AcDbPolyline
 90
    4
 70
    1
 43
0
 10
19047.5
 20
-262
 10
19066.5
 20
-262
 10
19066.5
 20
631
 10
19047.5
 20
631
  0
LWPOLYLINE
  5
1CD
100
AcDbEntity
  8
0
  6
ByLayer
 62
  256
370
   -1
100
AcDbPolyline
 90
    4
 70
    1
 43
0
 10
17603
 20
-278
 10
18083
 20
-278
 10
18083
 20
-96.80000000000018
 10
17603
 20
-96.80000000000018
  0
LWPOLYLINE
  5
1CE
100
AcDbEntity
  8
0
  6
ByLayer
 62
  256
370
   -1
100
AcDbPolyline
 90
    4
 70
    1
 43
0
 10
18087
 20
-278
 10
19055
 20
-278
 10
19055
 20
-96.80000000000018
 10
18087
 20
-96.80000000000018
  0
LWPOLYLINE
  5
1CF
100
AcDbEntity
  8
0
  6
ByLayer
 62
  256
370
   -1
100
AcDbPolyline
 90
    4
 70
    1
 43
0
 10
17603
 20
-92.80000000000018
 10
18083
 20
-92.80000000000018
 10
18083
 20
88.39999999999964
 10
17603
 20
88.39999999999964
  0
LWPOLYLINE
  5
1D0
100
AcDbEntity
  8
0
  6
ByLayer
 62
  256
370
   -1
100
AcDbPolyline
 90
    4
 70
    1
 43
0
 10
18087
 20
-92.80000000000018
 10
19055
 20
-92.80000000000018
 10
19055
 20
88.39999999999964
 10
18087
 20
88.39999999999964
  0
LWPOLYLINE
  5
1D1
100
AcDbEntity
  8
0
  6
ByLayer
 62
  256
370
   -1
100
AcDbPolyline
 90
    4
 70
    1
 43
0
 10
17603
 20
93.40000000000009
 10
18083
 20
93.40000000000009
 10
18083
 20
274.5999999999999
 10
17603
 20
274.5999999999999
  0
LWPOLYLINE
  5
1D2
100
AcDbEntity
  8
0
  6
ByLayer
 62
  256
370
   -1
100
AcDbPolyline
 90
    4
 70
    1
 43
0
 10
18087
 20
93.40000000000009
 10
19055
 20
93.40000000000009
 10
19055
 20
274.5999999999999
 10
18087
 20
274.5999999999999
  0
LWPOLYLINE
  5
1D3
100
AcDbEntity
  8
0
  6
ByLayer
 62
  256
370
   -1
100
AcDbPolyline
 90
    4
 70
    1
 43
0
 10
17603
 20
279.6000000000004
 10
18083
 20
279.6000000000004
 10
18083
 20
460.8000000000002
 10
17603
 20
460.8000000000002
  0
LWPOLYLINE
  5
1D4
100
AcDbEntity
  8
0
  6
ByLayer
 62
  256
370
   -1
100
AcDbPolyline
 90
    4
 70
    1
 43
0
 10
18087
 20
279.6000000000004
 10
19055
 20
279.6000000000004
 10
19055
 20
460.8000000000002
 10
18087
 20
460.8000000000002
  0
LWPOLYLINE
  5
1D5
100
AcDbEntity
  8
0
  6
ByLayer
 62
  256
370
   -1
100
AcDbPolyline
 90
    4
 70
    1
 43
0
 10
17603
 20
465.8000000000006
 10
18083
 20
465.8000000000006
 10
18083
 20
647.0000000000005
 10
17603
 20
647.0000000000005
  0
LWPOLYLINE
  5
1D6
100
AcDbEntity
  8
0
  6
ByLayer
 62
  256
370
   -1
100
AcDbPolyline
 90
    4
 70
    1
 43
0
 10
18087
 20
465.8000000000006
 10
19055
 20
465.8000000000006
 10
19055
 20
647.0000000000005
 10
18087
 20
647.0000000000005
  0
LINE
  5
1D7
100
AcDbEntity
  8
0
  6
ByLayer
 62
  256
370
   -1
100
AcDbLine
 10
17625
 20
870
 11
17625
 21
650
  0
LWPOLYLINE
  5
1D8
100
AcDbEntity
  8
0
  6
ByLayer
 62
  256
370
   -1
100
AcDbPolyline
 90
    4
 70
    1
 43
0
 10
17645
 20
650
 10
17625
 20
650
 10
17625
 20
1950
 10
17645
 20
1950
  0
LWPOLYLINE
  5
1D9
100
AcDbEntity
  8
0
  6
ByLayer
 62
  256
370
   -1
100
AcDbPolyline
 90
    4
 70
    1
 43
0
 10
19035
 20
650
 10
19015
 20
650
 10
19015
 20
1950
 10
19035
 20
1950
  0
LWPOLYLINE
  5
1DA
100
AcDbEntity
  8
0
  6
ByLayer
 62
  256
370
   -1
100
AcDbPolyline
 90
    4
 70
    1
 43
0
 10
19650
 20
650
 10
19625
 20
650
 10
19625
 20
1300
 10
19650
 20
1300
  0
LINE
  5
1DB
100
AcDbEntity
  8
0
  6
ByLayer
 62
  256
370
   -1
100
AcDbLine
 10
19625
 20
650
 11
19625
 21
870
  0
LWPOLYLINE
  5
1DC
100
AcDbEntity
  8
0
  6
ByLayer
 62
  256
370
   -1
100
AcDbPolyline
 90
    4
 70
    1
 43
0
 10
19625
 20
650
 10
19605
 20
650
 10
19605
 20
1950
 10
19625
 20
1950
  0
LWPOLYLINE
  5
1DD
100
AcDbEntity
  8
0
  6
ByLayer
 62
  256
370
   -1
100
AcDbPolyline
 90
    4
 70
    1
 43
0
 10
18235
 20
650
 10
18215
 20
650
 10
18215
 20
1950
 10
18235
 20
1950
  0
DIMENSION
  5
1DE
100
AcDbEntity
  8
measurements
  6
ByLayer
 62
  256
370
   -1
100
AcDbDimension
  2
*D7
 10
18083
 20
-240
 30
0
 11
17843
 21
-202.5
 31
0
 70
   33
 71
    5
 72
    0
  3
Standard
 53
0
210
0
220
0
230
1
100
AcDbAlignedDimension
 13
17603
 23
-187.4000000000001
 33
0
 14
18083
 24
-187.4000000000001
 34
0
  0
DIMENSION
  5
1DF
100
AcDbEntity
  8
measurements
  6
ByLayer
 62
  256
370
   -1
100
AcDbDimension
  2
*D8
 10
19055
 20
-240
 30
0
 11
18571
 21
-202.5
 31
0
 70
   33
 71
    5
 72
    0
  3
Standard
 53
0
210
0
220
0
230
1
100
AcDbAlignedDimension
 13
18087
 23
-240
 33
0
 14
19055
 24
-240
 34
0
  0
DIMENSION
  5
1E0
100
AcDbEntity
  8
measurements
  6
ByLayer
 62
  256
370
   -1
100
AcDbDimension
  2
*D9
 10
19647
 20
-240
 30
0
 11
19353
 21
-202.5
 31
0
 70
   33
 71
    5
 72
    0
  3
Standard
 53
0
210
0
220
0
230
1
100
AcDbAlignedDimension
 13
19059
 23
-240
 33
0
 14
19647
 24
-240
 34
0
  0
DIMENSION
  5
1E1
100
AcDbEntity
  8
measurements
  6
ByLayer
 62
  256
370
   -1
100
AcDbDimension
  2
*D10
 10
19730
 20
647
 30
0
 11
19692.5
 21
184.5
 31
0
 70
   33
 71
    5
 72
    0
  3
Standard
 53
0
210
0
220
0
230
1
100
AcDbAlignedDimension
 13
19647
 23
-278
 33
0
 14
19647
 24
647
 34
0
  0
DIMENSION
  5
1E2
100
AcDbEntity
  8
measurements
  6
ByLayer
 62
  256
370
   -1
100
AcDbDimension
  2
*D11
 10
18920
 20
88.39999999999964
 30
0
 11
18882.5
 21
-2.200000000000268
 31
0
 70
   33
 71
    5
 72
    0
  3
Standard
 53
0
210
0
220
0
230
1
100
AcDbAlignedDimension
 13
18920
 23
-92.80000000000018
 33
0
 14
18920
 24
88.39999999999964
 34
0
  0
LWPOLYLINE
  5
1E3
100
AcDbEntity
  8
0
  6
ByLayer
 62
  256
370
   -1
100
AcDbPolyline
 90
    4
 70
    1
 43
0
 10
17600
 20
-281
 10
19650
 20
-281
 10
19650
 20
650
 10
17600
 20
650
  0
MTEXT
  5
1E4
100
AcDbEntity
  8
measurements
  6
ByLayer
 62
  256
370
   -1
100
AcDbMText
 10
19350
 20
40
 30
0
 40
100
 41
277.7777777777778
 71
    8
 72
    1
  1
Tuer\P
  7
iso
210
0
220
0
230
1
 50
0
 73
    2
 44
1
  0
MTEXT
  5
1E5
100
AcDbEntity
  8
measurements
  6
ByLayer
 62
  256
370
   -1
100
AcDbMText
 10
18520
 20
150
 30
0
 40
100
 41
355.5555343553499
 71
    8
 72
    1
  1
Schub
  7
iso
210
0
220
0
230
1
 50
0
 73
    2
 44
1
  0
DIMENSION
  5
1E6
100
AcDbEntity
  8
measurements
  6
ByLayer
 62
  256
370
   -1
100
AcDbDimension
  2
*D12
 10
17640
 20
-510
 30
0
 11
17620
 21
-472.5
 31
0
 70
   33
 71
    5
 72
    0
  3
Standard
 53
0
210
0
220
0
230
1
100
AcDbAlignedDimension
 13
17600
 23
90
 33
0
 14
17640
 24
90
 34
0
  0
DIMENSION
  5
1E7
100
AcDbEntity
  8
measurements
  6
ByLayer
 62
  256
370
   -1
100
AcDbDimension
  2
*D13
 10
19650
 20
-510
 30
0
 11
18645
 21
-472.5
 31
0
 70
   33
 71
    5
 72
    0
  3
Standard
 53
0
210
0
220
0
230
1
100
AcDbAlignedDimension
 13
17640
 23
90
 33
0
 14
19650
 24
90
 34
0
  0
LWPOLYLINE
  5
1E8
100
AcDbEntity
  8
0
  6
ByLayer
 62
  256
370
   -1
100
AcDbPolyline
 90
    4
 70
    1
 43
0
 10
17325
 20
-3000
 10
17925
 20
-3000
 10
17925
 20
-2069
 10
17325
 20
-2069
  0
LWPOLYLINE
  5
1E9
100
AcDbEntity
  8
0
  6
ByLayer
 62
  256
370
   -1
100
AcDbPolyline
 90
    4
 70
    1
 43
0
 10
17325
 20
-3000
 10
17925
 20
-3000
 10
17925
 20
-2981
 10
17325
 20
-2981
  0
LWPOLYLINE
  5
1EA
100
AcDbEntity
  8
0
  6
ByLayer
 62
  256
370
   -1
100
AcDbPolyline
 90
    4
 70
    1
 43
0
 10
17325
 20
-2069
 10
17925
 20
-2069
 10
17925
 20
-2088
 10
17325
 20
-2088
  0
LWPOLYLINE
  5
1EB
100
AcDbEntity
  8
0
  6
ByLayer
 62
  256
370
   -1
100
AcDbPolyline
 90
    4
 70
    1
 43
0
 10
17325
 20
-2088
 10
17344
 20
-2088
 10
17344
 20
-2981
 10
17325
 20
-2981
  0
DIMENSION
  5
1EC
100
AcDbEntity
  8
measurements
  6
ByLayer
 62
  256
370
   -1
100
AcDbDimension
  2
*D14
 10
17900
 20
-3419
 30
0
 11
17050
 21
-3381.5
 31
0
 70
   33
 71
    5
 72
    0
  3
Standard
 53
0
210
0
220
0
230
1
100
AcDbAlignedDimension
 13
16200
 23
-3019
 33
0
 14
17900
 24
-3019
 34
0
  0
DIMENSION
  5
1ED
100
AcDbEntity
  8
measurements
  6
ByLayer
 62
  256
370
   -1
100
AcDbDimension
  2
*D15
 10
17925
 20
-3219
 30
0
 11
17625
 21
-3181.5
 31
0
 70
   33
 71
    5
 72
    0
  3
Standard
 53
0
210
0
220
0
230
1
100
AcDbAlignedDimension
 13
17325
 23
-3000
 33
0
 14
17925
 24
-3000
 34
0
  0
DIMENSION
  5
1EE
100
AcDbEntity
  8
measurements
  6
ByLayer
 62
  256
370
   -1
100
AcDbDimension
  2
*D16
 10
16200
 20
-3219
 30
0
 11
16762.5
 21
-3181.5
 31
0
 70
   33
 71
    5
 72
    0
  3
Standard
 53
0
210
0
220
0
230
1
100
AcDbAlignedDimension
 13
17325
 23
-3000
 33
0
 14
16200
 24
-3000
 34
0
  0
DIMENSION
  5
1EF
100
AcDbEntity
  8
measurements
  6
ByLayer
 62
  256
370
   -1
100
AcDbDimension
  2
*D17
 10
16100
 20
-1419
 30
0
 11
16062.5
 21
-1649
 31
0
 70
   33
 71
    5
 72
    0
  3
Standard
 53
0
210
0
220
0
230
1
100
AcDbAlignedDimension
 13
16200
 23
-1879
 33
0
 14
16200
 24
-1419
 34
0
  0
DIMENSION
  5
1F0
100
AcDbEntity
  8
measurements
  6
ByLayer
 62
  256
370
   -1
100
AcDbDimension
  2
*D18
 10
17500
 20
-2088
 30
0
 11
17462.5
 21
-2534.5
 31
0
 70
   33
 71
    5
 72
    0
  3
Standard
 53
0
210
0
220
0
230
1
100
AcDbAlignedDimension
 13
17344
 23
-2981
 33
0
 14
17344
 24
-2088
 34
0
  0
DIMENSION
  5
1F1
100
AcDbEntity
  8
measurements
  6
ByLayer
 62
  256
370
   -1
100
AcDbDimension
  2
*D19
 10
18060
 20
-2069
 30
0
 11
18022.5
 21
-2534.5
 31
0
 70
   33
 71
    5
 72
    0
  3
Standard
 53
0
210
0
220
0
230
1
100
AcDbAlignedDimension
 13
17925
 23
-3000
 33
0
 14
17925
 24
-2069
 34
0
  0
LWPOLYLINE
  5
1F2
100
AcDbEntity
  8
0
  6
ByLayer
 62
  256
370
   -1
100
AcDbPolyline
 90
    4
 70
    1
 43
0
 10
16200
 20
-2069
 10
16219
 20
-2069
 10
16219
 20
-1879
 10
16200
 20
-1879
  0
LWPOLYLINE
  5
1F3
100
AcDbEntity
  8
0
  6
ByLayer
 62
  256
370
   -1
100
AcDbPolyline
 90
    4
 70
    1
 43
0
 10
16219
 20
-2069
 10
17619
 20
-2069
 10
17619
 20
-2049
 10
16219
 20
-2049
  0
LWPOLYLINE
  5
1F4
100
AcDbEntity
  8
0
  6
ByLayer
 62
  256
370
   -1
100
AcDbPolyline
 90
    4
 70
    1
 43
0
 10
17638
 20
-769
 10
17658
 20
-769
 10
17658
 20
-2069
 10
17638
 20
-2069
  0
LWPOLYLINE
  5
1F5
100
AcDbEntity
  8
0
  6
ByLayer
 62
  256
370
   -1
100
AcDbPolyline
 90
    4
 70
    1
 43
0
 10
17898
 20
-769
 10
17918
 20
-769
 10
17918
 20
-2069
 10
17898
 20
-2069
  0
LWPOLYLINE
  5
1F6
100
AcDbEntity
  8
0
  6
ByLayer
 62
  256
370
   -1
100
AcDbPolyline
 90
    4
 70
    1
 43
0
 10
17658
 20
-1879
 10
17898
 20
-1879
 10
17898
 20
-1899
 10
17658
 20
-1899
  0
LWPOLYLINE
  5
1F7
100
AcDbEntity
  8
0
  6
ByLayer
 62
  256
370
   -1
100
AcDbPolyline
 90
    4
 70
    1
 43
0
 10
17658
 20
-1899
 10
17898
 20
-1899
 10
17898
 20
-1919
 10
17658
 20
-1919
  0
LWPOLYLINE
  5
1F8
100
AcDbEntity
  8
0
  6
ByLayer
 62
  256
370
   -1
100
AcDbPolyline
 90
    4
 70
    1
 43
0
 10
17658
 20
-1519
 10
17898
 20
-1519
 10
17898
 20
-1539
 10
17658
 20
-1539
  0
LWPOLYLINE
  5
1F9
100
AcDbEntity
  8
0
  6
ByLayer
 62
  256
370
   -1
100
AcDbPolyline
 90
    4
 70
    1
 43
0
 10
17658
 20
-1539
 10
17898
 20
-1539
 10
17898
 20
-1559
 10
17658
 20
-1559
  0
LWPOLYLINE
  5
1FA
100
AcDbEntity
  8
0
  6
ByLayer
 62
  256
370
   -1
100
AcDbPolyline
 90
    4
 70
    1
 43
0
 10
17658
 20
-1219
 10
17898
 20
-1219
 10
17898
 20
-1239
 10
17658
 20
-1239
  0
LWPOLYLINE
  5
1FB
100
AcDbEntity
  8
0
  6
ByLayer
 62
  256
370
   -1
100
AcDbPolyline
 90
    4
 70
    1
 43
0
 10
17658
 20
-1239
 10
17898
 20
-1239
 10
17898
 20
-1259
 10
17658
 20
-1259
  0
LWPOLYLINE
  5
1FC
100
AcDbEntity
  8
0
  6
ByLayer
 62
  256
370
   -1
100
AcDbPolyline
 90
    4
 70
    1
 43
0
 10
17658
 20
-919
 10
17898
 20
-919
 10
17898
 20
-939
 10
17658
 20
-939
  0
LWPOLYLINE
  5
1FD
100
AcDbEntity
  8
0
  6
ByLayer
 62
  256
370
   -1
100
AcDbPolyline
 90
    4
 70
    1
 43
0
 10
17658
 20
-939
 10
17898
 20
-939
 10
17898
 20
-959
 10
17658
 20
-959
  0
LWPOLYLINE
  5
1FE
100
AcDbEntity
  8
0
  6
ByLayer
 62
  256
370
   -1
100
AcDbPolyline
 90
    4
 70
    1
 43
0
 10
17638
 20
-2069
 10
17619
 20
-2069
 10
17619
 20
-1879
 10
17638
 20
-1879
  0
LWPOLYLINE
  5
1FF
100
AcDbEntity
  8
0
  6
ByLayer
 62
  256
370
   -1
100
AcDbPolyline
 90
    4
 70
    1
 43
0
 10
16200
 20
-3000
 10
16400
 20
-3000
 10
16400
 20
-2069
 10
16200
 20
-2069
  0
LWPOLYLINE
  5
200
100
AcDbEntity
  8
0
  6
ByLayer
 62
  256
370
   -1
100
AcDbPolyline
 90
    4
 70
    1
 43
0
 10
16200
 20
-3000
 10
16219
 20
-3000
 10
16219
 20
-2069
 10
16200
 20
-2069
  0
LWPOLYLINE
  5
201
100
AcDbEntity
  8
0
  6
ByLayer
 62
  256
370
   -1
100
AcDbPolyline
 90
    4
 70
    1
 43
0
 10
16400
 20
-2069
 10
16381
 20
-2069
 10
16381
 20
-3000
 10
16400
 20
-3000
  0
LWPOLYLINE
  5
202
100
AcDbEntity
  8
0
  6
ByLayer
 62
  256
370
   -1
100
AcDbPolyline
 90
    4
 70
    1
 43
0
 10
16219
 20
-3000
 10
16381
 20
-3000
 10
16381
 20
-2981
 10
16219
 20
-2981
  0
LWPOLYLINE
  5
203
100
AcDbEntity
  8
0
  6
ByLayer
 62
  256
370
   -1
100
AcDbPolyline
 90
    4
 70
    1
 43
0
 10
16219
 20
-2069
 10
16381
 20
-2069
 10
16381
 20
-2088
 10
16219
 20
-2088
  0
LWPOLYLINE
  5
204
100
AcDbEntity
  8
0
  6
ByLayer
 62
  256
370
   -1
100
AcDbPolyline
 90
    4
 70
    1
 43
0
 10
16219
 20
-2626
 10
16381
 20
-2626
 10
16381
 20
-2607
 10
16219
 20
-2607
  0
LWPOLYLINE
  5
205
100
AcDbEntity
  8
0
  6
ByLayer
 62
  256
370
   -1
100
AcDbPolyline
 90
    4
 70
    1
 43
0
 10
16400
 20
-2069
 10
17325
 20
-2069
 10
17325
 20
-2269
 10
16400
 20
-2269
  0
LWPOLYLINE
  5
206
100
AcDbEntity
  8
0
  6
ByLayer
 62
  256
370
   -1
100
AcDbPolyline
 90
    9
 70
    0
 43
0
 10
16219
 20
-2069
 10
16219
 20
-1879
 10
16200
 20
-1879
 10
16200
 20
-1419
 10
17638
 20
-1419
 10
17638
 20
-1879
 10
17619
 20
-1879
 10
17619
 20
-2069
 10
16220
 20
-2069
  0
LINE
  5
207
100
AcDbEntity
  8
0
  6
ByLayer
 62
  256
370
   -1
100
AcDbLine
 10
16220
 20
-2069
 11
16219
 21
-2069
  0
LWPOLYLINE
  5
208
100
AcDbEntity
  8
back
  6
ByLayer
 62
  256
370
   -1
100
AcDbPolyline
 90
   10
 70
    0
 43
0
 10
16219
 20
-1879
 10
16219
 20
-2069
 10
16400
 20
-2069
 10
16400
 20
-2269
 10
17325
 20
-2269
 10
17325
 20
-2069
 10
17619
 20
-2069
 10
17619
 20
-1879
 10
17638
 20
-1879
 10
16219
 20
-1879
  0
DIMENSION
  5
209
100
AcDbEntity
  8
measurements
  6
ByLayer
 62
  256
370
   -1
100
AcDbDimension
  2
*D20
 10
17325
 20
-3000
 30
0
 11
16862.5
 21
-2962.5
 31
0
 70
   33
 71
    5
 72
    0
  3
Standard
 53
0
210
0
220
0
230
1
100
AcDbAlignedDimension
 13
16400
 23
-3000
 33
0
 14
17325
 24
-3000
 34
0
  0
DIMENSION
  5
20A
100
AcDbEntity
  8
measurements
  6
ByLayer
 62
  256
370
   -1
100
AcDbDimension
  2
*D21
 10
17200
 20
-2069
 30
0
 11
17162.5
 21
-2169
 31
0
 70
   33
 71
    5
 72
    0
  3
Standard
 53
0
210
0
220
0
230
1
100
AcDbAlignedDimension
 13
17325
 23
-2269
 33
0
 14
17325
 24
-2069
 34
0
  0
DIMENSION
  5
20B
100
AcDbEntity
  8
measurements
  6
ByLayer
 62
  256
370
   -1
100
AcDbDimension
  2
*D22
 10
16100
 20
-1879
 30
0
 11
16062.5
 21
-1974
 31
0
 70
   33
 71
    5
 72
    0
  3
Standard
 53
0
210
0
220
0
230
1
100
AcDbAlignedDimension
 13
16200
 23
-2069
 33
0
 14
16200
 24
-1879
 34
0
  0
LWPOLYLINE
  5
20C
100
AcDbEntity
  8
0
  6
ByLayer
 62
  256
370
   -1
100
AcDbPolyline
 90
    4
 70
    1
 43
0
 10
16400
 20
-3000
 10
17325
 20
-3000
 10
17325
 20
-2981
 10
16400
 20
-2981
  0
DIMENSION
  5
20D
100
AcDbEntity
  8
measurements
  6
ByLayer
 62
  256
370
   -1
100
AcDbDimension
  2
*D23
 10
17925
 20
-2200
 30
0
 11
17781.5
 21
-2162.5
 31
0
 70
   33
 71
    5
 72
    0
  3
Standard
 53
0
210
0
220
0
230
1
100
AcDbAlignedDimension
 13
17638
 23
-2069
 33
0
 14
17925
 24
-2069
 34
0
  0
DIMENSION
  5
20E
100
AcDbEntity
  8
measurements
  6
ByLayer
 62
  256
370
   -1
100
AcDbDimension
  2
*D24
 10
17619
 20
-1770
 30
0
 11
16919
 21
-1732.5
 31
0
 70
   33
 71
    5
 72
    0
  3
Standard
 53
0
210
0
220
0
230
1
100
AcDbAlignedDimension
 13
16219
 23
-1879
 33
0
 14
17619
 24
-1879
 34
0
  0
ENDSEC
  0
SECTION
  2
OBJECTS
  0
DICTIONARY
  5
C
330
0
100
AcDbDictionary
281
    1
  3
ACAD_GROUP
350
D
  0
DICTIONARY
  5
D
330
C
100
AcDbDictionary
281
    1
  0
PLOTSETTINGS
  5
20F
100
AcDbPlotSettings
  6
1x1
 40
0
 41
0
 42
0
 43
0
  0
ENDSEC
  0
EOF
